<?xml version="1.0" encoding="UTF-8"?>
<svg version="1.1" xmlns="http://www.w3.org/2000/svg" width="80" height="81">
<path d="M0 0 C8.52789511 10.16726866 10.88779045 21.61167864 10.29248047 34.52783203 C9.26519138 45.94557647 1.90022783 54.57019824 -6.4453125 61.7578125 C-10.28731877 64.53020423 -14.37798111 66.14121249 -18.88671875 67.51953125 C-19.50675781 67.71160156 -20.12679687 67.90367188 -20.765625 68.1015625 C-32.19920526 70.35458845 -42.69327357 68.18079126 -52.57421875 62.39453125 C-61.43845117 56.40586083 -67.26883245 47.92157502 -69.88671875 37.51953125 C-71.4606727 25.19496046 -70.08214863 14.01978506 -62.69921875 3.76953125 C-55.04068629 -5.31989475 -46.55574663 -9.72036399 -35.07421875 -12.35546875 C-21.72294615 -13.45208252 -9.70670242 -9.01706104 0 0 Z " fill="#393D8F" transform="translate(69.88671875,12.48046875)"/>
<path d="M0 0 C0 0.66 0 1.32 0 2 C1.8871875 2.0928125 1.8871875 2.0928125 3.8125 2.1875 C7.72564581 2.69821039 7.72564581 2.69821039 9.875 5.0625 C14.43163831 16.96038893 14.22679134 28.23971949 9 40 C6.859375 42.37890625 6.859375 42.37890625 5 44 C5.01160156 43.154375 5.02320312 42.30875 5.03515625 41.4375 C5.08489687 35.18439382 4.96940246 29.17994069 4 23 C3.04738281 23.06960937 2.09476563 23.13921875 1.11328125 23.2109375 C-9.01697184 23.64821461 -9.01697184 23.64821461 -11.97265625 21.69921875 C-13.25 20.0625 -13.25 20.0625 -15 17 C-15.66 16.67 -16.32 16.34 -17 16 C-17.66964286 8.23214286 -17.66964286 8.23214286 -14.8125 4.625 C-9.98372711 0.11814531 -6.52495432 -0.25588056 0 0 Z " fill="#D3D4E6" transform="translate(65,19)"/>
<path d="M0 0 C8.52789511 10.16726866 10.88779045 21.61167864 10.29248047 34.52783203 C9.26519138 45.94557647 1.90022783 54.57019824 -6.4453125 61.7578125 C-10.28731877 64.53020423 -14.37798111 66.14121249 -18.88671875 67.51953125 C-19.50675781 67.71160156 -20.12679687 67.90367188 -20.765625 68.1015625 C-32.19920526 70.35458845 -42.69327357 68.18079126 -52.57421875 62.39453125 C-61.43845117 56.40586083 -67.26883245 47.92157502 -69.88671875 37.51953125 C-71.4606727 25.19496046 -70.08214863 14.01978506 -62.69921875 3.76953125 C-55.04068629 -5.31989475 -46.55574663 -9.72036399 -35.07421875 -12.35546875 C-21.72294615 -13.45208252 -9.70670242 -9.01706104 0 0 Z M-59.13671875 2.76953125 C-67.26059707 12.90740726 -69.14231738 23.90033399 -67.88671875 36.51953125 C-65.32845482 47.50134715 -58.2339716 56.02624251 -48.82421875 62.01953125 C-40.00594543 66.82209857 -30.56729283 67.94089529 -20.69921875 65.76953125 C-10.35441415 62.69973151 -1.25270723 56.22047797 4.1171875 46.70703125 C8.81885222 36.38180676 9.73930852 25.64113981 6.08984375 14.86328125 C4.51697909 11.08840607 2.52756109 7.81173103 0.11328125 4.51953125 C-0.56734375 3.59140625 -0.56734375 3.59140625 -1.26171875 2.64453125 C-6.54584757 -4.01806595 -12.62951335 -7.52845157 -20.88671875 -9.48046875 C-35.70522637 -10.6435932 -48.65371301 -8.56923006 -59.13671875 2.76953125 Z " fill="#28285D" transform="translate(69.88671875,12.48046875)"/>
<path d="M0 0 C7.94012103 0.84469373 14.96852071 4.63159862 21.9375 8.3125 C21.625 10.25 21.625 10.25 20.9375 12.3125 C19.9475 12.6425 18.9575 12.9725 17.9375 13.3125 C17.6075 14.3025 17.2775 15.2925 16.9375 16.3125 C16.6075 17.3025 16.2775 18.2925 15.9375 19.3125 C14.9475 19.6425 13.9575 19.9725 12.9375 20.3125 C12.23538106 21.96454456 11.56778587 23.63173769 10.9375 25.3125 C10.2775 25.6425 9.6175 25.9725 8.9375 26.3125 C8.27977572 29.34184491 8.27977572 29.34184491 7.9375 32.3125 C5.02947539 30.09321806 2.98437238 28.38280857 0.9375 25.3125 C0.60608989 22.79965626 0.49725267 20.31624268 0.37890625 17.78515625 C-0.13929183 14.88232983 -1.28788209 13.62224754 -3.0625 11.3125 C-3.64453125 9.0234375 -3.64453125 9.0234375 -3.875 6.6875 C-3.96394531 5.91148438 -4.05289062 5.13546875 -4.14453125 4.3359375 C-4.02355271 1.35180024 -2.89627237 0.43882915 0 0 Z " fill="#D1D2E5" transform="translate(9.0625,38.6875)"/>
<path d="M0 0 C0.33 1.65 0.66 3.3 1 5 C-0.8871875 5.5878125 -0.8871875 5.5878125 -2.8125 6.1875 C-6.76298068 7.65064099 -8.20230246 9.10498866 -10 13 C-10.66 13.66 -11.32 14.32 -12 15 C-12.39764263 16.98821313 -12.73775349 18.98944339 -13 21 C-15.31 20.67 -17.62 20.34 -20 20 C-20.66 21.32 -21.32 22.64 -22 24 C-22.33 24 -22.66 24 -23 24 C-22.83810912 15.41978318 -18.62955542 9.05241624 -12.98828125 2.75390625 C-9.32903564 -0.4739941 -4.63214072 -1.85285629 0 0 Z " fill="#CACCE0" transform="translate(26,10)"/>
<path d="M0 0 C10.54851556 4.85915416 16.56917192 11.89978353 21.08984375 22.51953125 C24.65703146 32.24126599 24.33064361 44.11036386 20.25390625 53.61328125 C16.37653692 60.9935699 10.78967489 67.13729951 4 72 C3.01 72 2.02 72 1 72 C2.14371389 68.56885833 2.71673874 68.31832533 5.625 66.4375 C13.08373247 61.00079375 17.5341392 53.75123395 19.56640625 44.7890625 C21.42267369 32.84874765 19.07605682 22.77169751 12 13 C11.608125 12.443125 11.21625 11.88625 10.8125 11.3125 C7.72917405 7.25549217 4.45049845 5.26888156 0 3 C0 2.01 0 1.02 0 0 Z " fill="#2D2D5F" transform="translate(57,4)"/>
<path d="M0 0 C3.90096055 0.56816832 6.53869634 1.69246423 9.8125 3.875 C10.60269531 4.38804688 11.39289062 4.90109375 12.20703125 5.4296875 C12.79871094 5.94789062 13.39039062 6.46609375 14 7 C14 7.99 14 8.98 14 10 C9.71 10.66 5.42 11.32 1 12 C0.67 12.99 0.34 13.98 0 15 C-0.99 14.67 -1.98 14.34 -3 14 C-3 12.35 -3 10.7 -3 9 C-1.68 8.34 -0.36 7.68 1 7 C0.67 4.69 0.34 2.38 0 0 Z " fill="#CCCDE1" transform="translate(52,5)"/>
<path d="M0 0 C2.10505409 3.15758114 2.32845973 4.27296076 1.66015625 7.9140625 C-1.22501286 17.030514 -8.15445489 24.76963659 -16 30 C-16.99 30 -17.98 30 -19 30 C-17.85628611 26.56885833 -17.28326126 26.31832533 -14.375 24.4375 C-5.86294399 18.23302111 -2.02420448 10.14030056 0 0 Z " fill="#28285E" transform="translate(77,46)"/>
<path d="M0 0 C2 3 2 3 1.8125 6.5 C1.03631971 9.84354588 0.68478605 11.01559292 -2 13 C-3.45047396 10.09905209 -2.45356803 8.44027404 -1.5625 5.375 C-1.27503906 4.37210938 -0.98757812 3.36921875 -0.69140625 2.3359375 C-0.46324219 1.56507812 -0.23507813 0.79421875 0 0 Z " fill="#494976" transform="translate(77,46)"/>
<path d="M0 0 C1 3 1 3 0.22265625 5.04296875 C-0.16019531 5.75066406 -0.54304687 6.45835938 -0.9375 7.1875 C-1.31777344 7.90292969 -1.69804688 8.61835938 -2.08984375 9.35546875 C-2.54037109 10.16951172 -2.54037109 10.16951172 -3 11 C-3.66 10.67 -4.32 10.34 -5 10 C-4.49701212 5.59885603 -2.91227269 3.28804981 0 0 Z " fill="#2F2F64" transform="translate(7,18)"/>
<path d="M0 0 C0.66 0.66 1.32 1.32 2 2 C0.71937515 3.7074998 -0.61767557 5.37373596 -2 7 C-2.66 7 -3.32 7 -4 7 C-2.92598892 4.08482708 -2.22189824 2.22189824 0 0 Z " fill="#2F3065" transform="translate(74,58)"/>
</svg>
