<?xml version="1.0" standalone="no"?>
<!DOCTYPE svg PUBLIC "-//W3C//DTD SVG 20010904//EN"
 "http://www.w3.org/TR/2001/REC-SVG-20010904/DTD/svg10.dtd">
<svg version="1.0" xmlns="http://www.w3.org/2000/svg"
 width="512.000000pt" height="512.000000pt" viewBox="0 0 512.000000 512.000000"
 preserveAspectRatio="xMidYMid meet">
<metadata>
Created by potrace 1.16, written by Peter Selinger 2001-2019
</metadata>
<g transform="translate(0.000000,512.000000) scale(0.100000,-0.100000)"
fill="#69FFF2" stroke="none">
<path d="M2332 5108 c-13 -13 -18 -634 -4 -654 11 -16 35 -22 57 -14 19 7 20
18 25 241 l5 234 146 -229 c80 -126 154 -235 165 -242 12 -8 27 -9 42 -3 l22
8 -2 333 -3 333 -31 3 c-17 2 -36 -3 -42 -11 -8 -9 -13 -87 -14 -235 l-3 -222
-149 235 c-133 208 -153 235 -176 235 -14 0 -31 -5 -38 -12z"/>
<path d="M2528 4356 c-11 -10 -281 -914 -313 -1048 -4 -16 -12 -28 -18 -28 -6
0 -159 81 -339 180 -181 99 -339 180 -353 180 -17 0 -29 -8 -36 -24 -10 -21 9
-60 175 -358 102 -184 186 -339 186 -344 0 -5 -244 -79 -541 -164 -576 -165
-576 -165 -545 -215 14 -21 18 -22 717 -222 l377 -108 -190 -343 c-264 -477
-270 -472 209 -209 186 102 341 182 344 179 4 -4 75 -243 159 -532 84 -289
157 -531 163 -538 6 -7 24 -12 41 -10 l31 3 156 538 c85 295 158 539 160 542
3 2 156 -79 341 -180 185 -102 345 -185 355 -185 24 0 43 19 43 42 0 9 -84
168 -186 353 -103 184 -185 337 -183 339 2 2 227 67 499 145 628 180 589 167
596 198 4 15 1 30 -7 38 -8 7 -252 82 -544 165 -291 84 -533 156 -538 159 -4
4 76 158 178 342 101 184 185 341 185 350 0 21 -20 39 -46 39 -11 0 -171 -83
-355 -184 -279 -153 -335 -181 -342 -167 -4 9 -75 250 -158 536 -83 286 -155
526 -161 533 -14 16 -43 15 -60 -2z m195 -776 l104 -355 -61 -33 c-34 -19 -85
-47 -113 -63 l-53 -29 1 447 c0 286 4 437 10 418 5 -16 56 -190 112 -385z
m-217 -467 c-6 -6 -216 106 -216 115 0 4 48 175 107 380 l108 373 3 -432 c1
-238 0 -434 -2 -436z m214 -199 c82 -39 149 -104 192 -185 31 -61 33 -70 33
-169 0 -93 -3 -111 -27 -162 -31 -68 -103 -147 -163 -183 -200 -116 -457 -33
-562 183 -24 50 -27 69 -28 157 0 88 3 107 27 157 31 68 105 149 166 185 70
41 120 53 212 50 70 -2 97 -8 150 -33z m-773 -201 l60 -108 -224 -3 c-124 -1
-324 -1 -445 0 l-220 3 368 107 c203 58 376 107 385 107 11 1 37 -35 76 -106z
m1678 -2 l380 -110 -447 0 c-247 -1 -448 2 -448 5 0 15 116 214 125 214 6 0
181 -49 390 -109z m-1625 -208 c0 -5 -107 -203 -115 -211 -3 -4 -747 208 -754
214 -2 2 192 4 432 4 241 0 437 -3 437 -7z m1615 -104 c-209 -60 -382 -109
-385 -109 -4 0 -109 188 -118 211 -2 5 189 9 440 8 l443 0 -380 -110z m-1106
-831 l0 -443 -110 375 c-60 206 -108 378 -106 383 2 7 202 125 215 127 1 0 2
-199 1 -442z m302 328 c13 -10 2 -58 -97 -396 l-113 -385 0 448 -1 448 98 -52
c53 -29 104 -57 113 -63z"/>
<path d="M2455 2766 c-200 -92 -170 -380 45 -436 115 -31 241 37 279 149 16
50 13 130 -8 177 -22 49 -92 111 -140 124 -59 16 -122 12 -176 -14z m164 -84
c108 -54 104 -200 -6 -253 -59 -28 -105 -19 -154 30 -49 49 -58 95 -30 154 37
76 119 106 190 69z"/>
<path d="M201 2912 c-7 -13 5 -108 39 -323 27 -167 50 -309 50 -316 0 -18 38
-35 60 -28 23 7 29 28 70 215 18 80 35 150 39 157 3 7 24 -69 46 -167 42 -196
55 -222 99 -202 29 13 24 -6 81 355 51 322 51 327 -5 327 -36 0 -41 -16 -71
-217 -13 -84 -26 -153 -29 -153 -3 0 -20 69 -39 153 -18 83 -38 160 -43 170
-9 18 -44 23 -66 9 -7 -5 -29 -83 -49 -175 -20 -92 -38 -165 -40 -163 -2 2
-17 83 -32 179 -16 97 -32 180 -36 186 -11 18 -63 13 -74 -7z"/>
<path d="M4461 2906 c-8 -9 -11 -112 -9 -357 l3 -344 227 -3 c221 -2 227 -2
238 18 9 17 8 27 -5 46 -15 24 -16 24 -195 24 l-180 0 0 110 0 110 179 0 c150
0 182 3 195 16 19 18 20 28 6 55 -10 18 -23 19 -195 19 l-185 0 0 115 0 115
185 0 185 0 12 25 c9 21 8 28 -7 45 -17 19 -31 20 -230 20 -168 0 -215 -3
-224 -14z"/>
<path d="M2492 668 c-19 -6 -54 -30 -78 -52 -37 -34 -47 -50 -56 -98 -9 -43
-9 -65 0 -96 25 -81 69 -114 207 -151 113 -31 131 -51 100 -112 -46 -89 -161
-91 -245 -4 -48 49 -100 44 -100 -11 0 -26 86 -109 135 -130 39 -16 141 -19
178 -5 72 27 136 120 137 196 0 81 -43 118 -183 156 -120 34 -154 66 -141 135
7 38 50 77 97 88 36 9 110 -24 132 -58 23 -34 72 -36 84 -3 11 28 5 45 -28 80
-55 61 -164 90 -239 65z"/>
</g>
</svg>
