<?xml version="1.0" encoding="UTF-8"?>
<svg width="1840px" height="833px" viewBox="0 0 1840 833" version="1.1" xmlns="http://www.w3.org/2000/svg" xmlns:xlink="http://www.w3.org/1999/xlink">
    <!-- Generator: Sketch 53 (72520) - https://sketchapp.com -->
    <title>portfolio 1 - wide</title>
    <desc>Created with Sketch.</desc>
    <defs>
        <rect id="path-1" x="0" y="0" width="1840" height="833"></rect>
        <linearGradient x1="0%" y1="54.1066776%" x2="100%" y2="45.8933224%" id="linearGradient-3">
            <stop stop-color="#D2D2D2" offset="0%"></stop>
            <stop stop-color="#EAEAEA" offset="100%"></stop>
        </linearGradient>
        <linearGradient x1="-2.22044605e-14%" y1="50%" x2="100%" y2="50%" id="linearGradient-4">
            <stop stop-color="#E7E7E7" offset="0%"></stop>
            <stop stop-color="#DDDDDD" offset="100%"></stop>
        </linearGradient>
        <linearGradient x1="34.3949939%" y1="100%" x2="65.6050061%" y2="1.05475548e-30%" id="linearGradient-5">
            <stop stop-color="#D2D2D2" offset="0%"></stop>
            <stop stop-color="#EAEAEA" offset="100%"></stop>
        </linearGradient>
        <linearGradient x1="50%" y1="0%" x2="50%" y2="100%" id="linearGradient-6">
            <stop stop-color="#D2D2D2" offset="0%"></stop>
            <stop stop-color="#EAEAEA" offset="100%"></stop>
        </linearGradient>
    </defs>
    <g id="Wireframes-+-Mobile" stroke="none" stroke-width="1" fill="none" fill-rule="evenodd">
        <g id="portfolio-1---wide">
            <mask id="mask-2" fill="white">
                <use xlink:href="#path-1"></use>
            </mask>
            <use id="Rectangle-Copy-33" fill="#F4F4F4" xlink:href="#path-1"></use>
            <g id="store-shapes-placeholder-1" mask="url(#mask-2)">
                <g transform="translate(-853.000000, 0.000000)">
                    <path d="M11.652366,833 C288.350423,833 439.608009,412 726.724757,412 C1013.84151,412 1193.94423,833 1445.55706,833 C1697.1699,833 -163.470625,833 11.652366,833 Z" id="Path-22-Copy" fill="url(#linearGradient-3)" opacity="0.800000012"></path>
                    <path d="M2088.65237,421 C2365.35042,421 2516.60801,2.61911819e-14 2803.72476,0 C3090.84151,0 3270.94423,421 3522.55706,421 C3774.1699,421 1913.52938,421 2088.65237,421 Z" id="Path-22-Copy" fill="url(#linearGradient-4)" transform="translate(2811.500000, 210.500000) scale(1, -1) translate(-2811.500000, -210.500000) "></path>
                    <g id="Group-91" stroke-width="1" fill="none" transform="translate(1328.000000, 119.000000)">
                        <rect id="Rectangle-Copy-36" fill="url(#linearGradient-5)" opacity="0.800000012" x="0" y="0" width="500" height="895" rx="6.80000019"></rect>
                        <rect id="Rectangle-Copy-36" fill="url(#linearGradient-6)" opacity="0.699999988" x="390" y="120" width="500" height="895" rx="6.80000019"></rect>
                    </g>
                </g>
            </g>
        </g>
    </g>
</svg>