<?xml version="1.0" standalone="no"?>
<!DOCTYPE svg PUBLIC "-//W3C//DTD SVG 20010904//EN"
 "http://www.w3.org/TR/2001/REC-SVG-20010904/DTD/svg10.dtd">
<svg version="1.0" xmlns="http://www.w3.org/2000/svg"
 width="512.000000pt" height="512.000000pt" viewBox="0 0 512.000000 512.000000"
 preserveAspectRatio="xMidYMid meet">
<metadata>
Created by potrace 1.11, written by Peter Selinger 2001-2013
</metadata>
<g transform="translate(0.000000,512.000000) scale(0.100000,-0.100000)"
fill="#000000" stroke="none">
<path d="M2379 5086 c-2 -2 -38 -7 -79 -11 -175 -16 -304 -42 -510 -103 -205
-61 -496 -203 -675 -330 -414 -294 -725 -681 -908 -1132 -33 -81 -87 -241
-103 -305 -4 -16 -8 -34 -10 -40 -8 -32 -36 -165 -40 -195 -3 -19 -7 -46 -10
-60 -26 -156 -26 -577 1 -710 2 -13 7 -42 10 -65 21 -146 94 -398 160 -555
235 -557 662 -1017 1193 -1285 225 -113 474 -197 699 -235 35 -6 75 -12 90
-15 148 -27 568 -27 718 0 17 3 59 10 95 16 212 36 464 120 670 223 270 136
453 268 670 486 410 409 651 911 726 1515 16 123 7 594 -11 625 -2 3 -6 28 -9
55 -51 384 -253 837 -523 1175 -63 78 -240 263 -323 336 -59 52 -231 178 -315
231 -92 58 -312 169 -400 202 -33 13 -69 27 -80 32 -89 39 -389 110 -565 134
-51 7 -465 17 -471 11z"/>
</g>
</svg>
