<svg width="355" height="136" viewBox="0 0 355 136" fill="none" xmlns="http://www.w3.org/2000/svg">
<g clip-path="url(#clip0_316_5201)">
<g opacity="0.7" clip-path="url(#clip1_316_5201)">
<path fill-rule="evenodd" clip-rule="evenodd" d="M330.016 1.66573H24.9838C22.1667 1.66573 19.883 3.89711 19.883 6.64965V47.5178C19.883 50.2704 22.1667 52.5017 24.9838 52.5017H330.016C332.833 52.5017 335.117 50.2704 335.117 47.5178V6.64965C335.117 3.89711 332.833 1.66573 330.016 1.66573ZM24.9838 0.668945C21.6033 0.668945 18.8628 3.3466 18.8628 6.64965V47.5178C18.8628 50.8209 21.6033 53.4985 24.9838 53.4985H330.016C333.397 53.4985 336.137 50.8209 336.137 47.5178V6.64965C336.137 3.3466 333.397 0.668945 330.016 0.668945H24.9838Z" fill="white"/>
<path d="M45.9423 33.5628L49.7782 22.3988H48.4234L45.322 32.0796L42.1881 22.3988L40.8822 22.4148L37.7809 32.0796L34.6469 22.3988H33.2432L37.0627 33.5628H38.4012L41.5188 24.1532L44.6038 33.5628H45.9423Z" fill="white"/>
<path d="M55.7824 33.5628H57.0229L57.0066 28.0127C56.9903 26.2105 55.815 25.1101 53.6931 25.1101C52.224 25.1101 51.2936 25.5248 50.1837 26.2424L50.7223 27.1515C51.6201 26.5455 52.5015 26.1946 53.4482 26.1946C54.9663 26.1946 55.7498 26.9282 55.7498 28.1563V28.6507H52.9259C50.9019 28.6666 49.7103 29.5916 49.7103 31.0589C49.7103 32.5102 50.8529 33.6266 52.6321 33.6266C54.0032 33.6266 55.0968 33.1801 55.7824 32.271V33.5628ZM52.8769 32.5421C51.669 32.5421 50.9019 31.9361 50.9019 31.0111C50.9019 30.086 51.6527 29.6554 53.0891 29.6554H55.7661V30.6602C55.4396 31.8244 54.3297 32.5421 52.8769 32.5421Z" fill="white"/>
<path d="M63.9462 31.9839C63.4729 32.271 63.0158 32.4145 62.5751 32.4145C61.8406 32.4145 61.4325 32.0318 61.4325 31.0111V26.4338H64.1584V25.4131L61.4325 25.4291V23.2122H60.1756V25.4291H58.9351V26.4338H60.1756V31.2343C60.1756 32.893 61.106 33.6266 62.3629 33.6266C63.0485 33.6107 63.7014 33.3874 64.3053 32.9887L63.9462 31.9839Z" fill="white"/>
<path d="M69.4933 25.126C66.9959 25.126 65.233 26.8644 65.233 29.3684C65.233 31.8723 66.9796 33.6107 69.5096 33.6107C70.946 33.6107 72.1539 33.1003 72.97 32.2072L72.2682 31.4736C71.5989 32.1594 70.6685 32.5262 69.6075 32.5262C67.9426 32.5262 66.7184 31.4895 66.4899 29.8468H73.5087C73.6393 26.992 72.2682 25.1101 69.4933 25.126ZM66.4899 28.8261C66.6858 27.2313 67.861 26.1946 69.4933 26.1946C71.1745 26.1946 72.2845 27.2153 72.3661 28.8261H66.4899Z" fill="white"/>
<path d="M76.9673 25.1579H75.6942V33.5628H76.9673V29.0972C77.1143 27.4386 78.2405 26.3381 80.0523 26.37V25.1101C78.5996 25.126 77.5386 25.7959 76.9673 27.0239V25.1579Z" fill="white"/>
<path d="M91.3067 22.3669C87.9931 22.3669 85.3488 24.839 85.3488 27.9649C85.3488 31.1227 87.9605 33.6266 91.2577 33.6266C92.841 33.6266 94.3754 32.9408 95.5016 31.9042L94.7018 31.027C93.8041 31.8563 92.5798 32.3667 91.323 32.3667C88.744 32.3667 86.671 30.405 86.671 27.9649C86.671 25.5088 88.744 23.5631 91.323 23.5631C92.5798 23.5631 93.8204 24.0894 94.7018 24.9666L95.4853 23.9937C94.3917 22.9889 92.8737 22.3669 91.3067 22.3669Z" fill="white"/>
<path d="M100.898 25.126C98.3515 25.126 96.5396 26.8485 96.5396 29.3524C96.5396 31.8723 98.3515 33.6107 100.898 33.6107C103.444 33.6107 105.256 31.8723 105.256 29.3524C105.256 26.8485 103.444 25.126 100.898 25.126ZM100.898 26.2584C102.693 26.2584 103.983 27.5343 103.983 29.3684C103.983 31.2184 102.693 32.4943 100.898 32.4943C99.1023 32.4943 97.8128 31.2184 97.8128 29.3684C97.8128 27.5343 99.1023 26.2584 100.898 26.2584Z" fill="white"/>
<path d="M108.85 33.5628V21.729H107.577V33.5628H108.85Z" fill="white"/>
<path d="M119.497 25.1579H118.224V29.2886C118.224 31.0749 117.18 32.3348 115.4 32.3667C113.915 32.3667 113.017 31.4895 113.017 30.0063V25.1579H111.744V30.3412C111.744 32.3667 112.952 33.6107 114.96 33.6107C116.51 33.5947 117.653 32.9727 118.224 31.665V33.5628H119.497V25.1579Z" fill="white"/>
<path d="M133.624 25.1101C131.976 25.126 130.768 25.8278 130.229 27.311C129.87 25.9235 128.76 25.1101 127.144 25.1101C125.593 25.126 124.434 25.748 123.863 27.0558V25.1579H122.606V33.5628H123.863V29.4322C123.863 27.63 124.924 26.386 126.687 26.3381C128.189 26.3381 129.07 27.2153 129.07 28.7145V33.5628H130.36V29.4322C130.36 27.63 131.388 26.386 133.167 26.3381C134.652 26.3381 135.55 27.2153 135.55 28.7145V33.5628H136.823V28.3796C136.823 26.3541 135.632 25.1101 133.624 25.1101Z" fill="white"/>
<path d="M144.249 25.1101C142.682 25.126 141.523 25.7321 140.92 27.008V25.1579H139.646V33.5628H140.92V29.0494C141.066 27.4545 142.111 26.37 143.809 26.3541C145.327 26.3541 146.241 27.2313 146.241 28.7145V33.5628H147.514V28.3796C147.514 26.3541 146.306 25.1101 144.249 25.1101Z" fill="white"/>
<path d="M162.281 23.6269V22.3988H155.017V33.5628H156.323V28.7783H161.66V27.5502H156.323V23.6269H162.281Z" fill="white"/>
<path d="M165.39 33.5628V21.729H164.117V33.5628H165.39Z" fill="white"/>
<path d="M172.071 25.126C169.525 25.126 167.713 26.8485 167.713 29.3524C167.713 31.8723 169.525 33.6107 172.071 33.6107C174.617 33.6107 176.429 31.8723 176.429 29.3524C176.429 26.8485 174.617 25.126 172.071 25.126ZM172.071 26.2584C173.866 26.2584 175.156 27.5343 175.156 29.3684C175.156 31.2184 173.866 32.4943 172.071 32.4943C170.275 32.4943 168.986 31.2184 168.986 29.3684C168.986 27.5343 170.275 26.2584 172.071 26.2584Z" fill="white"/>
<path d="M187.815 33.5628L190.998 25.1579H189.676L187.162 32.271L184.632 25.1579H183.294L180.797 32.271L178.25 25.1579H176.912L180.127 33.5628H181.449L183.963 26.7369L186.493 33.5628H187.815Z" fill="white"/>
<path d="M202.043 22.3669C198.73 22.3669 196.086 24.839 196.086 27.9649C196.086 31.1227 198.697 33.6266 201.994 33.6266C203.578 33.6266 205.112 32.9408 206.238 31.9042L205.439 31.027C204.541 31.8563 203.317 32.3667 202.06 32.3667C199.481 32.3667 197.408 30.405 197.408 27.9649C197.408 25.5088 199.481 23.5631 202.06 23.5631C203.317 23.5631 204.557 24.0894 205.439 24.9666L206.222 23.9937C205.128 22.9889 203.61 22.3669 202.043 22.3669Z" fill="white"/>
<path d="M215.105 25.1579H213.799L211.073 32.0956L208.217 25.1579H206.878L210.437 33.499L210.077 34.2805C209.735 35.062 209.18 35.4607 208.51 35.4607C208.086 35.4607 207.694 35.3331 207.303 35.062L206.764 36.0987C207.286 36.5133 207.858 36.7206 208.576 36.7206C209.718 36.7206 210.616 36.0508 211.155 34.759L215.105 25.1579Z" fill="white"/>
<path d="M220.687 31.9839C220.213 32.271 219.756 32.4145 219.315 32.4145C218.581 32.4145 218.173 32.0318 218.173 31.0111V26.4338H220.899V25.4131L218.173 25.4291V23.2122H216.916V25.4291H215.675V26.4338H216.916V31.2343C216.916 32.893 217.846 33.6266 219.103 33.6266C219.789 33.6107 220.442 33.3874 221.046 32.9887L220.687 31.9839Z" fill="white"/>
<path d="M226.332 25.126C223.785 25.126 221.973 26.8485 221.973 29.3524C221.973 31.8723 223.785 33.6107 226.332 33.6107C228.878 33.6107 230.69 31.8723 230.69 29.3524C230.69 26.8485 228.878 25.126 226.332 25.126ZM226.332 26.2584C228.127 26.2584 229.417 27.5343 229.417 29.3684C229.417 31.2184 228.127 32.4943 226.332 32.4943C224.536 32.4943 223.247 31.2184 223.247 29.3684C223.247 27.5343 224.536 26.2584 226.332 26.2584Z" fill="white"/>
<path d="M243.947 25.1101C242.298 25.126 241.09 25.8278 240.551 27.311C240.192 25.9235 239.082 25.1101 237.466 25.1101C235.916 25.126 234.757 25.748 234.185 27.0558V25.1579H232.929V33.5628H234.185V29.4322C234.185 27.63 235.246 26.386 237.009 26.3381C238.511 26.3381 239.392 27.2153 239.392 28.7145V33.5628H240.682V29.4322C240.682 27.63 241.71 26.386 243.489 26.3381C244.975 26.3381 245.873 27.2153 245.873 28.7145V33.5628H247.146V28.3796C247.146 26.3541 245.954 25.1101 243.947 25.1101Z" fill="white"/>
<path d="M253.364 25.126C250.866 25.126 249.104 26.8644 249.104 29.3684C249.104 31.8723 250.85 33.6107 253.38 33.6107C254.817 33.6107 256.024 33.1003 256.841 32.2072L256.139 31.4736C255.469 32.1594 254.539 32.5262 253.478 32.5262C251.813 32.5262 250.589 31.4895 250.36 29.8468H257.379C257.51 26.992 256.139 25.1101 253.364 25.126ZM250.36 28.8261C250.556 27.2313 251.732 26.1946 253.364 26.1946C255.045 26.1946 256.155 27.2153 256.237 28.8261H250.36Z" fill="white"/>
<path d="M263.645 31.9839C263.172 32.271 262.715 32.4145 262.274 32.4145C261.54 32.4145 261.132 32.0318 261.132 31.0111V26.4338H263.858V25.4131L261.132 25.4291V23.2122H259.875V25.4291H258.634V26.4338H259.875V31.2343C259.875 32.893 260.805 33.6266 262.062 33.6266C262.748 33.6107 263.401 33.3874 264.005 32.9887L263.645 31.9839Z" fill="white"/>
<path d="M269.193 25.126C266.695 25.126 264.932 26.8644 264.932 29.3684C264.932 31.8723 266.679 33.6107 269.209 33.6107C270.645 33.6107 271.853 33.1003 272.669 32.2072L271.967 31.4736C271.298 32.1594 270.368 32.5262 269.307 32.5262C267.642 32.5262 266.418 31.4895 266.189 29.8468H273.208C273.338 26.992 271.967 25.1101 269.193 25.126ZM266.189 28.8261C266.385 27.2313 267.56 26.1946 269.193 26.1946C270.874 26.1946 271.984 27.2153 272.065 28.8261H266.189Z" fill="white"/>
<path d="M276.667 25.1579H275.393V33.5628H276.667V29.0972C276.813 27.4386 277.94 26.3381 279.752 26.37V25.1101C278.299 25.126 277.238 25.7959 276.667 27.0239V25.1579Z" fill="white"/>
<path d="M316.61 35.2956L312.271 31.0554C312.163 30.9853 312.055 30.9152 311.948 30.9152H311.482C312.593 29.6537 313.311 27.9716 313.311 26.1493C313.311 22.1544 309.939 18.8604 305.851 18.8604C301.726 18.8604 298.391 22.1544 298.391 26.1493C298.391 30.1793 301.726 33.4383 305.851 33.4383C307.716 33.4383 309.401 32.7725 310.728 31.6862V32.1417C310.728 32.2469 310.764 32.352 310.836 32.4571L315.176 36.6973C315.355 36.8726 315.642 36.8726 315.785 36.6973L316.61 35.8913C316.79 35.7512 316.79 35.4708 316.61 35.2956ZM305.851 31.7563C302.659 31.7563 300.112 29.2682 300.112 26.1493C300.112 23.0655 302.659 20.5424 305.851 20.5424C309.007 20.5424 311.589 23.0655 311.589 26.1493C311.589 29.2682 309.007 31.7563 305.851 31.7563Z" fill="white"/>
</g>
<path opacity="0.15" fill-rule="evenodd" clip-rule="evenodd" d="M33.1453 70.4438C28.6379 70.4438 24.9839 74.0141 24.9839 78.4181V127.356C24.9839 131.76 28.6379 135.33 33.1453 135.33H83.2317C87.7391 135.33 91.3931 131.76 91.3931 127.356V78.4181C91.3931 74.0141 87.7391 70.4438 83.2317 70.4438H33.1453ZM74.549 98.5096C74.549 99.3701 74.3458 100.098 74.0748 100.826C78.0718 101.621 81.0527 105.063 81.0527 109.1C81.0527 113.8 77.1234 117.573 72.3812 117.573H47.4506C42.031 117.573 37.6952 113.337 37.6952 108.041C37.6952 103.937 40.4051 100.363 44.1988 99.1053V98.5096C44.1988 92.6846 49.0088 87.9187 55.0382 87.9187C59.0352 87.9187 62.558 90.1031 64.3871 93.2803C65.4033 92.5522 66.6905 92.1551 68.0454 92.1551C71.636 92.1551 74.549 95.0013 74.549 98.5096ZM58.3577 113.138L64.5904 106.982C65.2678 106.386 65.2678 105.327 64.5904 104.732L63.9129 104.004C63.2355 103.408 62.1515 103.408 61.5418 104.07L59.3739 106.32V97.98C59.3739 97.1195 58.6287 96.3914 57.748 96.3914H56.6641C55.7157 96.3914 55.0382 97.1195 55.0382 97.98V106.32L52.8026 104.07C52.1929 103.408 51.1089 103.408 50.4992 104.004L49.754 104.732C49.1443 105.327 49.1443 106.386 49.754 106.982L56.0544 113.138C56.6641 113.734 57.6803 113.734 58.3577 113.138Z" fill="#AFE2FF"/>
<path opacity="0.3" fill-rule="evenodd" clip-rule="evenodd" d="M112.006 70.4438C107.498 70.4438 103.844 74.0141 103.844 78.4181V127.356C103.844 131.76 107.498 135.33 112.006 135.33H162.092C166.599 135.33 170.253 131.76 170.253 127.356V78.4181C170.253 74.0141 166.599 70.4438 162.092 70.4438H112.006ZM153.409 98.5096C153.409 99.3701 153.206 100.098 152.935 100.826C156.932 101.621 159.913 105.063 159.913 109.1C159.913 113.8 155.984 117.573 151.242 117.573H126.311C120.891 117.573 116.556 113.337 116.556 108.041C116.556 103.937 119.265 100.363 123.059 99.1053V98.5096C123.059 92.6846 127.869 87.9187 133.899 87.9187C137.896 87.9187 141.418 90.1031 143.247 93.2803C144.264 92.5522 145.551 92.1551 146.906 92.1551C150.496 92.1551 153.409 95.0013 153.409 98.5096ZM137.218 113.138L143.451 106.982C144.128 106.386 144.128 105.327 143.451 104.732L142.773 104.004C142.096 103.408 141.012 103.408 140.402 104.07L138.234 106.32V97.98C138.234 97.1195 137.489 96.3914 136.608 96.3914H135.524C134.576 96.3914 133.899 97.1195 133.899 97.98V106.32L131.663 104.07C131.053 103.408 129.969 103.408 129.36 104.004L128.614 104.732C128.005 105.327 128.005 106.386 128.614 106.982L134.915 113.138C135.524 113.734 136.541 113.734 137.218 113.138Z" fill="#AFE2FF"/>
<path opacity="0.45" fill-rule="evenodd" clip-rule="evenodd" d="M190.867 70.4438C186.36 70.4438 182.706 74.0141 182.706 78.4181V127.356C182.706 131.76 186.36 135.33 190.867 135.33H240.954C245.461 135.33 249.115 131.76 249.115 127.356V78.4181C249.115 74.0141 245.461 70.4438 240.954 70.4438H190.867ZM232.271 98.5096C232.271 99.3701 232.068 100.098 231.797 100.826C235.794 101.621 238.775 105.063 238.775 109.1C238.775 113.8 234.846 117.573 230.103 117.573H205.173C199.753 117.573 195.417 113.337 195.417 108.041C195.417 103.937 198.127 100.363 201.921 99.1053V98.5096C201.921 92.6846 206.731 87.9187 212.76 87.9187C216.757 87.9187 220.28 90.1031 222.109 93.2803C223.125 92.5522 224.413 92.1551 225.768 92.1551C229.358 92.1551 232.271 95.0013 232.271 98.5096ZM216.08 113.138L222.313 106.982C222.99 106.386 222.99 105.327 222.313 104.732L221.635 104.004C220.958 103.408 219.874 103.408 219.264 104.07L217.096 106.32V97.98C217.096 97.1195 216.351 96.3914 215.47 96.3914H214.386C213.438 96.3914 212.76 97.1195 212.76 97.98V106.32L210.525 104.07C209.915 103.408 208.831 103.408 208.221 104.004L207.476 104.732C206.866 105.327 206.866 106.386 207.476 106.982L213.777 113.138C214.386 113.734 215.402 113.734 216.08 113.138Z" fill="#AFE2FF"/>
<path fill-rule="evenodd" clip-rule="evenodd" d="M269.728 70.4438C265.22 70.4438 261.566 74.0141 261.566 78.4181V127.356C261.566 131.76 265.22 135.33 269.728 135.33H319.814C324.322 135.33 327.976 131.76 327.976 127.356V78.4181C327.976 74.0141 324.322 70.4438 319.814 70.4438H269.728ZM311.132 98.5096C311.132 99.3701 310.928 100.098 310.657 100.826C314.654 101.621 317.635 105.063 317.635 109.1C317.635 113.8 313.706 117.573 308.964 117.573H284.033C278.613 117.573 274.278 113.337 274.278 108.041C274.278 103.937 276.988 100.363 280.781 99.1053V98.5096C280.781 92.6846 285.591 87.9187 291.621 87.9187C295.618 87.9187 299.141 90.1031 300.97 93.2803C301.986 92.5522 303.273 92.1551 304.628 92.1551C308.218 92.1551 311.132 95.0013 311.132 98.5096ZM294.94 113.138L301.173 106.982C301.85 106.386 301.85 105.327 301.173 104.732L300.495 104.004C299.818 103.408 298.734 103.408 298.124 104.07L295.956 106.32V97.98C295.956 97.1195 295.211 96.3914 294.331 96.3914H293.247C292.298 96.3914 291.621 97.1195 291.621 97.98V106.32L289.385 104.07C288.775 103.408 287.691 103.408 287.082 104.004L286.337 104.732C285.727 105.327 285.727 106.386 286.337 106.982L292.637 113.138C293.247 113.734 294.263 113.734 294.94 113.138Z" fill="#AFE2FF"/>
</g>
<defs>
<clipPath id="clip0_316_5201">
<rect width="317.274" height="134.662" fill="white" transform="translate(18.8628 0.668945)"/>
</clipPath>
<clipPath id="clip1_316_5201">
<rect width="317.274" height="52.8296" fill="white" transform="translate(18.8628 0.668945)"/>
</clipPath>
</defs>
</svg>
