<svg width="68" height="68" viewBox="0 0 68 68" fill="none" xmlns="http://www.w3.org/2000/svg">
<g opacity="0.4">
<path d="M44.1908 16.4479C43.195 15.867 42.1494 15.369 41.0622 14.9624L39.9087 18.0993C40.8133 18.4396 41.6846 18.8462 42.5062 19.3275L44.1825 16.4562L44.1908 16.4479Z" fill="#A1F740"/>
<path d="M39.7593 14.5311C38.6473 14.2323 37.5353 13.9834 36.39 13.8423L36.0083 17.1452C36.9627 17.2614 37.8838 17.4688 38.805 17.7178L39.7593 14.5311Z" fill="#A1F740"/>
<path d="M45.809 46.1826C45.1202 46.8548 44.3733 47.4689 43.5767 48.0166L45.4356 50.7635C46.3982 50.1079 47.2945 49.3693 48.1327 48.5561L45.809 46.1743V46.1826Z" fill="#A1F740"/>
<path d="M30.8131 17.3442C32.1575 17.087 33.5268 16.9376 34.8961 17.0621L35.087 13.726C33.1285 13.6098 31.1616 13.8505 29.2529 14.2654L30.0413 17.5019C30.2986 17.4438 30.5558 17.4023 30.8131 17.3525V17.3442Z" fill="#A1F740"/>
<path d="M44.1825 20.4313C44.7219 20.838 45.2281 21.2695 45.7177 21.7259L48.0248 19.3276C47.1866 18.5392 46.282 17.8255 45.3443 17.1533L43.502 19.9085C43.7426 20.0662 43.9584 20.2488 44.1908 20.423L44.1825 20.4313Z" fill="#A1F740"/>
<path d="M19.137 25.8008C19.9088 24.4398 20.8465 23.1701 21.942 22.058L19.5934 19.7178C18.2739 21.0539 17.1536 22.5725 16.2324 24.2074L19.1453 25.8008H19.137Z" fill="#A1F740"/>
<path d="M20.2654 43.9332C19.477 42.8461 18.8131 41.6677 18.2903 40.4312L15.2114 41.676C15.9666 43.4768 16.9874 45.1531 18.1741 46.6967L20.7633 44.6054C20.589 44.3897 20.4313 44.1573 20.2737 43.9332H20.2654Z" fill="#A1F740"/>
<path d="M25.2866 48.5559C23.8924 47.7177 22.631 46.6721 21.5189 45.4854L19.0542 47.7343C20.3986 49.1617 21.9256 50.4231 23.6102 51.4356L25.3115 48.5642L25.2866 48.5476V48.5559Z" fill="#A1F740"/>
<path d="M17.2283 36.556C16.8963 34.6224 16.9793 32.6224 17.3444 30.7054L14.083 30.0498C13.5685 32.6888 13.5685 35.4523 14.1079 38.083L17.361 37.4025C17.3029 37.1203 17.278 36.8382 17.2283 36.556Z" fill="#A1F740"/>
<path d="M33.9998 50.9872C32.6554 50.9872 31.3442 50.8129 30.0496 50.5059L29.2612 53.7424C31.95 54.3897 34.8546 54.481 37.5683 53.983L36.9708 50.705C35.9998 50.8793 35.0123 50.9789 33.9998 50.9789V50.9872Z" fill="#A1F740"/>
<path d="M28.0085 49.8753C27.4276 49.6512 26.855 49.394 26.2989 49.1201L24.7803 52.0828C25.8342 52.5973 26.9131 53.0454 28.0251 53.4106L28.996 50.2321C28.6641 50.1326 28.3404 49.9915 28.0168 49.8753H28.0085Z" fill="#A1F740"/>
<path d="M42.6058 48.6221C41.1867 49.4188 39.6764 50.0661 38.0996 50.4727L38.8963 53.7175C40.805 53.2362 42.6224 52.4478 44.3403 51.4851L42.639 48.6221H42.6224H42.6058Z" fill="#A1F740"/>
<path d="M23.5935 20.6221C25.1786 19.3607 26.9711 18.4063 28.9296 17.7839L27.9504 14.6138C25.2782 15.4519 22.8633 16.8212 20.7637 18.6138L22.9379 21.1283C23.1454 20.9457 23.3778 20.788 23.5935 20.6221Z" fill="#A1F740"/>
</g>
<g opacity="0.7">
<path d="M45.1368 15.0952C45.8505 15.5102 46.531 15.9666 47.1949 16.4562L49.9501 12.8214C47.8754 11.2944 45.6348 10.0247 43.2115 9.12012L41.6348 13.4023C42.863 13.8587 44.0248 14.4313 45.1368 15.0952Z" fill="#A1F740"/>
<path d="M49.3108 49.7344C48.3979 50.614 47.4187 51.4273 46.3647 52.1493L48.9208 55.9252C50.1988 55.0539 51.3938 54.0663 52.4975 52.9958L49.3108 49.7344Z" fill="#A1F740"/>
<path d="M14.7632 23.4106C15.759 21.6429 16.9872 19.9915 18.4063 18.5475C18.4063 18.5475 18.4644 18.4894 18.4976 18.4562C19.1366 17.8172 19.8254 17.2197 20.5391 16.6554L17.759 13.0454C14.9126 15.2612 12.5225 18.0579 10.7632 21.2114C11.6097 21.6761 13.9499 22.9541 14.7632 23.4023V23.4106Z" fill="#A1F740"/>
<path d="M27.4687 13.0287L26.1243 8.66357C23.6347 9.44366 21.3027 10.5723 19.1865 12.008L21.7508 15.7922C23.5019 14.6138 25.4189 13.6677 27.477 13.0287H27.4687Z" fill="#A1F740"/>
<path d="M12.0329 33.9999C12.0329 33.3609 12.0661 32.7385 12.1159 32.1161L7.57651 31.7095C7.43543 33.2115 7.43543 34.78 7.57651 36.2821L12.1242 35.8755C12.0744 35.253 12.0412 34.6306 12.0412 33.9999H12.0329Z" fill="#A1F740"/>
<path d="M16.2072 46.8461C15.6843 46.1241 15.203 45.3773 14.7715 44.6055L10.7715 46.7963C12.0495 49.0453 13.6263 51.1449 15.4686 52.9623L18.647 49.6926C17.7507 48.8212 16.9458 47.8586 16.2072 46.8461Z" fill="#A1F740"/>
<path d="M13.7261 42.4231C13.0456 40.7716 12.556 39.0787 12.2738 37.2944L7.75928 37.9666C8.14932 40.5392 8.9377 42.9708 10.0082 45.3193L14.1327 43.3608C13.9833 43.0538 13.8589 42.7384 13.7261 42.4231Z" fill="#A1F740"/>
<path d="M23.9997 53.5349C22.4561 52.7383 20.9872 51.759 19.676 50.6304L16.6885 54.0744C18.6553 55.7673 20.8876 57.1615 23.2445 58.2403L25.0868 54.0661C24.7134 53.9001 24.3565 53.7175 23.9997 53.5349Z" fill="#A1F740"/>
<path d="M12.4564 29.7262L12.4812 29.6018C12.6223 28.9711 12.7717 28.3486 12.9543 27.7345L8.58913 26.4233C8.16589 27.859 7.85054 29.3279 7.66797 30.8217L12.2074 31.3611C12.2738 30.8134 12.3568 30.2657 12.4647 29.7262H12.4564Z" fill="#A1F740"/>
<path d="M44.1078 53.4686C43.336 53.8753 42.5311 54.2238 41.7178 54.5558L43.3111 58.8296C44.7468 58.257 46.141 57.5931 47.4771 56.8379L45.1452 52.9126C44.8049 53.1118 44.4481 53.286 44.0995 53.4686H44.1078Z" fill="#A1F740"/>
<path d="M39.2445 55.311C36.7217 55.9334 34.0246 56.1325 31.4271 55.8089L30.8794 60.34C34.5059 60.7964 38.2404 60.3981 41.7176 59.3691L40.3815 55.0039C40.008 55.1201 39.6263 55.2114 39.2445 55.3027V55.311Z" fill="#A1F740"/>
<path d="M24.7881 58.8793C26.2404 59.4187 27.7507 59.8254 29.3109 60.1075L30.1076 55.6179C28.8213 55.3855 27.5765 55.0536 26.3814 54.6055L24.7881 58.8793Z" fill="#A1F740"/>
<path d="M35.2194 12.0829C36.9456 12.1741 38.5887 12.4729 40.2236 12.9376L41.5348 8.56419C39.1199 7.85879 36.6053 7.50195 34.0576 7.46875V12.0331C34.4477 12.0331 34.8294 12.0663 35.2194 12.0746V12.0829Z" fill="#A1F740"/>
<path d="M29.8921 12.4397C30.78 12.2654 31.6763 12.1576 32.5809 12.0746L32.2987 7.51855C30.7717 7.62644 29.2614 7.8505 27.7759 8.20735L28.8547 12.6389C29.195 12.5559 29.5435 12.4978 29.8921 12.4397Z" fill="#A1F740"/>
</g>
<path d="M10.1329 19.0373L5.21174 15.9336C4.1661 17.5933 3.26153 19.361 2.50635 21.2033L7.90054 23.3776C8.52295 21.8589 9.26983 20.4066 10.1329 19.0373Z" fill="#A1F740"/>
<path d="M16.7387 11.7342L13.1868 7.12842C10.5727 9.16161 8.26564 11.5683 6.33203 14.2653L11.0789 17.6346C12.6723 15.4106 14.581 13.4189 16.747 11.7342H16.7387Z" fill="#A1F740"/>
<path d="M0 33.9998C0 34.9873 0.0497925 35.9666 0.13278 36.9375L5.91701 36.423C5.85062 35.6263 5.80913 34.8131 5.80913 33.9998C5.80913 32.0413 6.0166 30.1409 6.39834 28.2985L0.713693 27.1118C0.257261 29.3359 0 31.6346 0 33.9998H0Z" fill="#A1F740"/>
<path d="M53.4771 13.6431L57.5103 9.44392C56.0912 8.08292 54.5476 6.83811 52.9045 5.73438L49.6763 10.5808C51.029 11.4937 52.2987 12.5228 53.4688 13.6431H53.4771Z" fill="#A1F740"/>
<path d="M40.7222 61.3775L42.0915 67.029C44.0417 66.5477 45.9338 65.9087 47.7346 65.1037L45.3778 59.7842C43.884 60.4481 42.3321 60.9792 40.7222 61.3775Z" fill="#A1F740"/>
<path d="M34 62.1908C32.8797 62.1908 31.7676 62.1161 30.6805 61.9916L29.9834 67.7593C31.3029 67.917 32.639 67.9999 34 67.9999C36.0581 67.9999 38.0747 67.8091 40.0332 67.4522L38.9958 61.7344C37.3776 62.0248 35.7095 62.1825 34.0083 62.1825L34 62.1908Z" fill="#A1F740"/>
<path d="M14.979 5.80927L18.2404 10.6308C21.3524 8.52297 24.9126 7.04579 28.7383 6.3155L27.6595 0.589355C23.0288 1.46072 18.73 3.26985 14.9707 5.80927H14.979Z" fill="#A1F740"/>
<path d="M48.1827 9.65168L51.1205 4.63093C48.274 2.97118 45.1703 1.70977 41.8757 0.929688L40.5396 6.58944C43.2615 7.23674 45.8259 8.28239 48.1827 9.65998V9.65168Z" fill="#A1F740"/>
<path d="M46.9712 59.0208L49.6351 64.1909C52.6143 62.6473 55.328 60.6722 57.7098 58.3569L53.6434 54.1909C51.6766 56.1079 49.4276 57.7345 46.9712 59.0208Z" fill="#A1F740"/>
<path d="M34 5.80913C34.4813 5.80913 34.9543 5.82573 35.4273 5.84232L35.7344 0.0414938C35.1618 0.0165975 34.5809 0 34 0C32.5892 0 31.2033 0.0912863 29.8423 0.257261L30.5643 6.04149C31.6929 5.90042 32.8298 5.81743 34 5.81743V5.80913Z" fill="#A1F740"/>
<path d="M28.0001 67.4604L29.0126 61.7425C26.2242 61.2446 23.5852 60.3234 21.1453 59.062L18.4731 64.2404C21.4192 65.7591 24.6225 66.8545 27.9918 67.4604H28.0001Z" fill="#A1F740"/>
<path d="M7.96695 44.8052L2.58936 47.0292C3.31965 48.7969 4.19931 50.4815 5.20346 52.0832L10.1329 48.9711C9.30305 47.6516 8.57276 46.2658 7.96695 44.8052Z" fill="#A1F740"/>
<path d="M6.12457 38.2158L0.373535 39.0706C0.663992 41.0374 1.13702 42.9461 1.75113 44.7884L7.2698 42.9295C6.76358 41.4108 6.36524 39.8341 6.12457 38.2158Z" fill="#A1F740"/>
<path d="M11.1536 50.4814L6.42334 53.8756C9.13703 57.635 12.6059 60.8134 16.6059 63.2034L19.5852 58.1827C16.2823 56.2076 13.4026 53.5852 11.1536 50.4814Z" fill="#A1F740"/>
</svg>
