<svg width="162" height="44" viewBox="0 0 162 44" fill="none" xmlns="http://www.w3.org/2000/svg">
<g clip-path="url(#clip0_381_2152)">
<path d="M69.9416 22.8175C69.9416 23.4086 69.9653 23.716 69.9416 24.0234C69.847 24.7091 69.4215 25.0638 68.7358 25.0874C68.0501 25.1111 67.5535 24.8746 67.4116 24.2126C67.2614 23.5987 67.1586 22.9742 67.1042 22.3446C66.6156 17.4738 66.1269 12.6029 65.6383 7.73207C65.5437 6.83356 65.4728 5.93505 65.4018 5.03655L65.3309 4.68187C65.2127 4.75782 65.1086 4.85385 65.0235 4.96562C64.6924 5.76954 64.3614 6.57347 64.1013 7.40104C62.5723 12.13 61.0511 16.8748 59.5379 21.6353C59.3724 22.1318 59.2305 22.6284 59.0886 23.1013C58.8285 23.9761 58.2138 24.4017 57.3626 24.5199C56.5113 24.6382 55.9438 23.9997 55.6365 23.1485C55.3291 22.2973 54.9272 20.8077 54.5488 19.6491C52.9883 14.8492 51.3804 10.0256 49.7962 5.2257C49.7253 5.06019 49.607 4.89468 49.5361 4.72917C49.4779 4.89139 49.4306 5.05725 49.3942 5.2257C48.9923 8.91431 48.5903 12.6266 48.212 16.3388C47.9519 18.6796 47.7154 20.9969 47.479 23.3377C47.4533 23.5372 47.4138 23.7348 47.3607 23.9288C47.1007 24.8273 46.5568 25.2293 45.7293 25.0638C44.9017 24.8983 44.5943 24.3544 44.6889 23.4796C44.9253 21.2333 45.1855 18.9634 45.4455 16.7171C45.7056 14.4709 46.013 11.799 46.2731 9.33992C46.5332 6.88085 46.7696 4.42177 47.0534 1.98635C47.1243 1.30065 47.2425 0.567659 48.0228 0.3785C48.8031 0.189341 49.7962 0.142054 50.411 0.898691C50.9065 1.50784 51.3125 2.1846 51.6168 2.90851C52.3498 4.68187 53.0592 6.47888 53.6739 8.29954C54.8325 11.728 55.9202 15.1802 57.0315 18.6087C57.1261 18.8452 57.2443 19.058 57.3626 19.2944C57.4967 19.0616 57.6076 18.816 57.6936 18.5614C59.065 14.3999 60.4127 10.1911 61.8314 6.02964C62.3516 4.56365 63.0137 3.12132 63.6757 1.70262C64.1013 0.780472 64.8343 0.236639 65.922 0.283929C67.0097 0.331219 67.4589 0.685892 67.5771 1.70262C67.8372 3.75973 68.0737 5.81682 68.2865 7.89757C68.6648 11.1606 69.0195 14.4236 69.3978 17.7102L69.9416 22.8175Z" fill="white"/>
<path d="M116.877 12.7681V2.26973C116.877 1.56038 116.806 0.780094 117.61 0.449066C118.414 0.118037 119.288 0.070759 119.974 0.638236C120.594 1.11974 121.11 1.72328 121.487 2.4116C123.024 5.27264 124.49 8.18095 125.909 11.1129C127.328 14.0449 128.605 16.8586 129.976 19.7433C130.128 19.9947 130.302 20.2321 130.496 20.4527C130.551 20.1481 130.583 19.8398 130.591 19.5305V2.69533C130.575 2.2597 130.607 1.82366 130.685 1.39486C130.851 0.732804 131.276 0.307208 132.009 0.283563C132.742 0.259918 133.168 0.732804 133.357 1.39486C133.436 1.7758 133.467 2.16486 133.452 2.55347V22.9354C133.452 23.7866 133.428 24.6378 132.482 25.0161C131.993 25.1874 131.463 25.2044 130.964 25.0649C130.466 24.9253 130.021 24.6359 129.692 24.2358C128.956 23.3173 128.315 22.3271 127.777 21.2802C125.578 16.7641 123.426 12.2242 121.275 7.68441C120.849 6.80955 120.4 5.93468 119.951 5.05982C119.885 4.97199 119.794 4.90605 119.69 4.87066C119.634 4.96026 119.586 5.05532 119.549 5.15441V22.6989C119.549 23.0536 119.549 23.4083 119.525 23.7629C119.43 24.6142 118.934 25.1107 118.177 25.087C117.421 25.0634 116.9 24.5905 116.877 23.7156C116.853 21.5876 116.877 19.4832 116.877 17.3552V12.7681Z" fill="white"/>
<path d="M93.1374 0.0238689C97.4644 0.165738 100.467 2.38836 102.217 6.21883C103.967 10.0493 104.156 14.4236 102.524 18.5851C101.318 21.6117 99.2614 23.8343 96.093 24.8983C91.9788 26.2461 87.7227 24.7801 85.0508 21.1388C81.575 16.3388 81.5277 9.00893 85.0981 4.23266C87.0843 1.58443 89.6616 -0.0707107 93.1374 0.0238689ZM85.2873 12.7685C85.2488 14.5804 85.6291 16.3768 86.3986 18.0176C87.699 20.6895 89.6852 22.5338 92.83 22.6757C95.9747 22.8175 98.6702 20.855 99.8525 17.7102C100.729 15.4711 100.99 13.0382 100.609 10.6641C100.254 8.25229 99.4033 6.14789 97.5826 4.46911C96.3581 3.33236 94.7491 2.70063 93.0782 2.70063C91.4074 2.70063 89.7984 3.33236 88.5739 4.46911C86.1621 6.71537 85.4055 9.60006 85.2873 12.7685Z" fill="white"/>
<path d="M6.97512 25.4891C4.4924 25.4891 2.52991 24.3778 0.685611 22.9591C-0.0946702 22.3916 -0.212918 21.5168 0.30727 20.902C0.827458 20.2872 1.53684 20.24 2.29348 20.8547C3.83039 22.0606 5.53279 22.77 7.51896 22.6754C9.50513 22.5808 11.5623 21.2567 11.9169 19.105C12.177 17.5208 11.6332 16.3149 10.4273 15.3928C9.67066 14.8016 8.74852 14.3997 7.8973 13.9031C6.36039 13.0519 4.72887 12.3189 3.26288 11.3258C0.0235312 9.1505 0.0235657 5.03629 1.9388 2.62451C3.06147 1.21815 4.69198 0.309469 6.47861 0.0945062C7.67087 -0.0813982 8.88636 -0.0150103 10.0524 0.289695C11.2184 0.5944 12.3109 1.13116 13.2647 1.86787C13.6194 2.15161 14.0213 2.55358 14.1159 2.93189C14.2105 3.31021 13.974 3.85406 13.7139 4.18508C13.4538 4.51611 12.8391 4.68163 12.3189 4.42153C11.7987 4.16144 11.3968 3.85405 10.9239 3.57031C8.6776 2.22255 5.95839 2.459 4.37418 4.11414C3.26287 5.29638 3.16833 7.35349 4.35057 8.4648C5.16542 9.2028 6.06186 9.84536 7.02245 10.38C8.72489 11.3495 10.5455 12.1534 12.1534 13.2411C14.4469 14.778 15.2036 17.0479 14.6834 19.7198C14.1632 22.3916 12.6972 23.9759 10.2854 24.8271C9.22138 25.1817 8.08643 25.2763 6.97512 25.4891Z" fill="white"/>
<path d="M153.455 25.3472C151.115 25.489 149.105 24.3777 147.237 22.9354C146.551 22.3679 146.433 21.5403 146.906 20.9492C147.379 20.3581 148.135 20.2399 148.868 20.8073C150.405 22.0369 152.108 22.7698 154.094 22.6753C156.529 22.557 158.161 21.1856 158.515 18.9157C158.728 17.568 158.303 16.3857 157.239 15.5818C156.369 14.9718 155.461 14.4189 154.519 13.9267C153.054 13.0991 151.517 12.3897 150.098 11.4676C148.112 10.1908 147 8.29918 147.237 5.91105C147.473 3.52291 149.057 1.34757 151.658 0.496358C154.732 -0.544017 157.546 0.11804 160.1 2.03328C160.904 2.64804 161.022 3.33375 160.573 3.97216C160.123 4.61057 159.367 4.77609 158.515 4.18497C157.559 3.48469 156.462 3.00062 155.3 2.76628C153.645 2.50618 152.179 2.88449 150.996 4.11402C150.675 4.43524 150.426 4.82089 150.264 5.24554C150.103 5.6702 150.033 6.12422 150.06 6.57772C150.087 7.03121 150.209 7.47389 150.42 7.87657C150.63 8.27925 150.923 8.63282 151.28 8.91395C152.141 9.52989 153.051 10.0755 153.999 10.5454C155.796 11.5385 157.712 12.2479 159.296 13.6193C162.157 16.102 162.11 21.1147 159.154 23.5028C157.522 24.8506 156.056 25.3472 153.455 25.3472Z" fill="white"/>
<path d="M52.9174 36.0347V30.5018C52.9174 29.887 52.8465 29.2013 53.5795 28.8939C54.3125 28.5865 54.9982 28.8466 55.4947 29.6742C56.4405 31.2584 57.2681 32.8899 58.0957 34.545C58.9232 36.2002 59.8217 38.2336 60.6966 40.078C60.7944 40.2357 60.9137 40.379 61.0513 40.5036C61.1037 40.3265 61.1354 40.1441 61.1458 39.9597C61.1695 36.8622 61.1695 33.7648 61.1695 30.6436C61.1695 30.289 61.0985 29.9106 61.2168 29.6033C61.335 29.2959 61.6187 28.8939 61.8315 28.9176C62.009 28.9453 62.1788 29.0101 62.3295 29.1079C62.4803 29.2057 62.6087 29.3342 62.7064 29.485C62.8719 29.7451 62.8482 30.1707 62.8482 30.5018V41.804C62.8482 42.4424 62.8955 43.1045 62.1389 43.3882C61.3823 43.672 60.7912 43.3882 60.271 42.537C59.5495 41.4134 58.8865 40.2532 58.2848 39.0612C57.268 36.9805 56.3459 34.8761 55.3528 32.7717L54.9982 32.0387L54.7617 31.7786C54.7144 31.9205 54.6198 32.0387 54.6198 32.1569C54.6198 32.2751 54.5962 32.7244 54.5962 32.9845C54.5962 35.9637 54.6198 38.9666 54.5962 41.9459C54.5962 42.537 54.7853 43.2937 53.8632 43.4119C52.941 43.5301 52.9174 42.939 52.9174 41.9223V36.0347Z" fill="white"/>
<path d="M159.414 40.6219V30.6201C159.414 30.2181 159.39 29.7689 159.556 29.4615C159.654 29.3077 159.786 29.1786 159.941 29.0843C160.097 28.99 160.273 28.9329 160.454 28.9176C160.644 28.894 160.927 29.3433 161.046 29.627C161.164 29.9107 161.093 30.1708 161.093 30.4309V41.875C161.093 42.4189 161.282 43.1046 160.549 43.3883C159.816 43.6721 159.272 43.3883 158.728 42.6317C158.316 42.1023 157.96 41.5318 157.664 40.9292C156.364 38.2574 155.111 35.5382 153.834 32.8427L153.408 32.0151C153.361 31.9205 153.243 31.8733 153.148 31.8023C153.103 31.9 153.071 32.0034 153.054 32.1097C153.03 32.3698 153.054 32.6535 153.054 32.9373C153.054 35.8456 153.054 38.7539 153.03 41.6386C153.03 42.0406 153.077 42.4898 152.912 42.7972C152.814 42.948 152.686 43.0765 152.535 43.1743C152.384 43.2721 152.214 43.337 152.037 43.3647C151.824 43.3883 151.54 42.9627 151.398 42.679C151.335 42.416 151.319 42.1437 151.351 41.875C151.351 38.0446 151.351 34.2378 151.375 30.4309C151.375 29.8398 151.162 29.1068 152.013 28.8467C152.864 28.5866 153.456 28.8704 153.905 29.6979C154.945 31.5422 155.867 33.4575 156.837 35.3491C157.806 37.2406 158.563 38.8721 159.414 40.6219Z" fill="white"/>
<path d="M30.7619 12.6735V23.0537C30.7619 24.4251 30.2891 25.0635 29.3669 25.0871C28.4448 25.1108 27.9245 24.4487 27.9009 23.0537V2.34072C27.9079 1.98796 27.9636 1.63787 28.0664 1.30036C28.3029 0.543719 28.7758 0.212687 29.4615 0.307267C29.7786 0.317507 30.0811 0.443351 30.3119 0.661103C30.5427 0.878856 30.686 1.17349 30.7147 1.48951C30.7658 1.84173 30.7816 2.19817 30.7619 2.55353V12.6735Z" fill="white"/>
<path d="M71.3364 36.0586V30.4075C71.3601 29.0598 71.5965 28.8233 72.9206 28.7997C74.2447 28.776 75.0487 28.847 76.1127 28.7997C78.8318 28.6814 80.6998 30.0292 81.9057 32.3228C83.1116 34.6163 83.348 39.5108 80.3215 41.9699C79.2102 42.8684 78.0042 43.4595 76.5619 43.4595H73.0152C71.5965 43.4358 71.3601 43.1994 71.3364 41.828V36.0586ZM73.0388 36.0823C73.0388 37.5719 73.0152 39.0615 73.0388 40.5512C73.0625 42.0408 73.0861 41.7807 74.3156 41.8043C75.025 41.8043 75.7343 41.828 76.4437 41.8043C78.4062 41.7334 79.7776 40.764 80.5106 38.9433C80.8858 38.0342 81.0729 37.0585 81.0607 36.075C81.0485 35.0916 80.8373 34.1208 80.4397 33.2213C79.7304 31.4715 78.3826 30.5021 76.4201 30.4784H74.1974C73.1098 30.5021 73.0388 30.573 73.0388 31.6134C73.0152 33.103 73.0388 34.5927 73.0388 36.0823Z" fill="white"/>
<path d="M143.619 36.2475C143.608 37.675 143.251 39.0785 142.579 40.3381C141.491 42.4661 139.718 43.6247 137.377 43.6484C135.036 43.672 133.239 42.4661 132.151 40.3854C130.402 37.0987 130.638 33.8594 132.813 30.8328C134.989 27.8063 139.67 27.8772 141.893 30.8801C143.06 32.4221 143.668 34.3145 143.619 36.2475ZM141.988 35.8455C141.751 35.018 141.562 33.8357 141.089 32.7717C140.403 31.2584 139.174 30.2654 137.424 30.289C135.674 30.3126 134.445 31.1166 133.665 32.6535C132.459 35.018 132.459 37.4061 133.712 39.747C134.042 40.3832 134.534 40.9215 135.137 41.308C135.741 41.6944 136.436 41.9155 137.151 41.949C137.867 41.9826 138.58 41.8274 139.217 41.499C139.854 41.1706 140.394 40.6806 140.782 40.078C141.586 38.8957 141.751 37.548 141.988 35.8455Z" fill="white"/>
<path d="M26.766 37.3823C26.7424 38.6355 26.1276 40.4089 24.6853 41.8512C22.2735 44.2867 18.7977 44.263 16.4096 41.8039C13.5722 38.8483 13.6431 33.2445 16.4805 30.4071C19.3179 27.5697 23.3611 28.0663 25.4892 31.3529C26.5295 32.9608 26.8843 34.7578 26.766 37.3823ZM25.2054 36.1765C24.9926 35.1361 24.8981 34.0721 24.5198 33.1026C23.3375 30.0997 19.6489 29.1539 17.4026 31.8731C15.6765 33.9775 15.6056 38.2336 17.379 40.338C19.1523 42.4424 22.6991 42.466 24.236 39.6995C24.8103 38.6092 25.1411 37.4072 25.2054 36.1765Z" fill="white"/>
<path d="M94.9108 28.8232C95.6438 28.7522 96.0457 29.2488 96.3058 29.9108C96.9206 31.566 97.6063 33.1975 98.1738 34.8763C98.9777 37.1225 99.7107 39.4161 100.467 41.686C100.562 41.9461 100.751 42.2298 100.704 42.4663C100.657 42.7027 100.42 43.2465 100.184 43.3411C100.009 43.3554 99.833 43.3261 99.6721 43.256C99.5112 43.1859 99.3701 43.077 99.2614 42.9392C98.9068 42.1589 98.6703 41.3077 98.3866 40.4801C97.961 39.2269 97.961 39.2269 96.6605 39.2269C95.36 39.2269 93.9887 39.2506 92.6645 39.2033C91.9552 39.2033 91.5768 39.487 91.3877 40.1491C91.1985 40.8111 90.8912 41.8042 90.6311 42.6318C90.371 43.4593 90.1345 43.5776 89.4961 43.3884C88.8577 43.1993 88.8577 42.6791 89.0469 42.1352C90.4419 38.1393 91.8133 34.1433 93.2557 30.1473C93.6576 29.036 94.0123 28.8232 94.9108 28.8232ZM94.8399 37.5245C95.431 37.5245 95.9984 37.5481 96.5896 37.5245C97.1807 37.5008 97.3462 37.288 97.1571 36.7915C96.495 34.9945 95.833 33.1975 95.1473 31.4005C95.1 31.2586 94.9108 31.164 94.7926 31.0221C94.6778 31.1318 94.582 31.2596 94.5089 31.4005L92.5227 36.7915C92.3335 37.288 92.57 37.5245 93.0665 37.5245C93.563 37.5245 94.2487 37.5245 94.8399 37.5245Z" fill="white"/>
<path d="M36.1767 34.4271C36.1767 35.8931 36.1058 37.3354 36.2004 38.7778C36.4132 41.9698 39.1796 42.4664 40.8821 41.6625C42.5845 40.8585 42.7027 39.7709 42.7264 38.3758C42.7737 35.7749 42.75 33.1976 42.75 30.5966C42.75 30.2893 42.679 29.9346 42.7973 29.6745C42.9155 29.4144 43.2229 28.9179 43.4593 28.9179C43.6958 28.9179 44.1214 29.2489 44.3106 29.5326C44.4997 29.8164 44.4288 30.1238 44.4288 30.4311C44.4288 33.0794 44.4524 35.7039 44.4051 38.3285C44.3815 39.7945 44.0741 41.2132 42.9391 42.3009C41.284 43.8378 39.3688 44.0033 37.3353 43.2467C35.3019 42.49 34.6161 40.9768 34.5452 39.1325C34.4033 36.0586 34.4979 33.0084 34.4979 29.9346C34.4979 29.3908 34.5925 28.8942 35.2782 28.8469C35.9639 28.7996 36.153 29.1543 36.1767 29.9582C36.2003 31.4479 36.1767 32.9375 36.1767 34.4271Z" fill="white"/>
<path d="M0.0236924 36.153C0.0236924 34.1904 4.7544e-05 32.2279 0.0236924 30.2654C0.0236924 28.9413 0.165539 28.8231 1.53694 28.7994H6.12409C6.36053 28.7994 6.64425 28.7521 6.80976 28.8467C6.97528 28.9413 7.47186 29.2487 7.4955 29.4851C7.47978 29.648 7.42404 29.8044 7.33329 29.9405C7.24254 30.0767 7.11954 30.1883 6.97527 30.2654C6.64424 30.4546 6.21868 30.4546 5.84036 30.4782C4.84727 30.5018 3.87783 30.4782 2.88475 30.4782C1.89166 30.4782 1.72615 30.5728 1.7025 31.7077V33.5993C1.7025 34.8998 1.72615 34.9234 3.00297 34.9471H5.93492C6.47875 34.9471 7.04624 34.9707 7.06988 35.6801C7.09353 36.3894 6.57332 36.6022 5.98219 36.6022C4.87088 36.6259 3.78322 36.6495 2.67191 36.6259C1.96256 36.6022 1.67886 36.9096 1.7025 37.5953C1.72615 38.8958 1.7025 40.1962 1.7025 41.4731C1.7025 41.8041 1.70248 42.1115 1.67883 42.4189C1.65519 42.7262 1.37145 43.4356 0.733039 43.412C0.0946271 43.3883 0.0236924 42.8918 0.0236924 42.3952V36.153Z" fill="white"/>
<path d="M108.672 36.5313C108.672 34.8053 108.624 33.0792 108.672 31.3531C108.695 30.6438 108.459 30.4309 107.821 30.4782C107.182 30.5255 106.567 30.5019 105.929 30.4782C105.584 30.4758 105.245 30.395 104.936 30.2418C104.809 30.1381 104.705 30.0086 104.632 29.8619C104.558 29.7152 104.517 29.5545 104.51 29.3906C104.51 29.2014 104.912 28.965 105.172 28.8467C105.395 28.7825 105.629 28.7663 105.858 28.7995H113.755C114.252 28.7995 114.749 28.894 114.749 29.5324C114.749 30.1709 114.347 30.36 113.85 30.431C113.496 30.4625 113.141 30.4704 112.786 30.4546C110.28 30.4782 110.54 30.2181 110.54 32.7718C110.54 35.3254 110.54 38.5648 110.516 41.4731C110.544 41.9054 110.488 42.3391 110.351 42.7499C110.256 43.01 109.854 43.3883 109.641 43.3647C109.464 43.32 109.298 43.2378 109.156 43.1236C109.013 43.0094 108.896 42.8658 108.814 42.7026C108.648 42.3953 108.672 41.946 108.648 41.5677V36.5077L108.672 36.5313Z" fill="white"/>
<path d="M123.308 36.2242V41.7571C123.308 42.0408 123.379 42.3482 123.285 42.5846C123.19 42.8211 122.788 43.4122 122.646 43.3649C122.504 43.3176 121.96 42.963 121.7 42.6792C121.44 42.3955 121.629 42.23 121.629 41.9935V30.1001C121.677 29.2016 121.984 28.776 122.552 28.847C123.119 28.9179 123.308 29.5327 123.308 30.1001V36.2242Z" fill="white"/>
</g>
<defs>
<clipPath id="clip0_381_2152">
<rect width="161.4" height="43.6958" fill="white"/>
</clipPath>
</defs>
</svg>
