<svg width="107" height="29" viewBox="0 0 107 29" fill="none" xmlns="http://www.w3.org/2000/svg">
<path d="M51.9041 13.7038H46.2733C46.1282 13.7038 46.011 13.8202 46.011 13.9644V16.6992C46.011 16.8433 46.1282 16.9616 46.2733 16.9616H48.4702V20.3598C48.4702 20.3598 47.9772 20.5261 46.6137 20.5261C45.0047 20.5261 42.7576 19.9422 42.7576 15.0343C42.7576 10.1264 45.0977 9.47963 47.2945 9.47963C49.1957 9.47963 50.016 9.81224 50.5368 9.97301C50.7005 10.0229 50.8512 9.86029 50.8512 9.71615L51.48 7.07371C51.48 7.00534 51.4576 6.92404 51.3795 6.87045C51.1674 6.72077 49.8765 6.00195 46.6137 6.00195C42.8562 6.00011 39 7.58927 39 15.2246C39 22.86 43.4142 23.9983 47.1346 23.9983C50.215 23.9983 52.0827 22.69 52.0827 22.69C52.1589 22.6475 52.1682 22.5403 52.1682 22.4923V13.9662C52.1682 13.8221 52.051 13.7057 51.9059 13.7057L51.9041 13.7038Z" fill="white"/>
<path d="M80.9212 6.91474C80.9212 6.76876 80.8058 6.65234 80.6607 6.65234H77.491C77.3459 6.65234 77.2287 6.77061 77.2287 6.91474V13.0016H72.2881V6.91474C72.2881 6.76876 72.1709 6.65234 72.0258 6.65234H68.856C68.7109 6.65234 68.5938 6.77061 68.5938 6.91474V23.394C68.5938 23.5399 68.7109 23.6582 68.856 23.6582H72.0258C72.1709 23.6582 72.2881 23.5399 72.2881 23.394V16.3444H77.2287L77.2194 23.3921C77.2194 23.5381 77.3366 23.6563 77.4817 23.6563H80.6589C80.804 23.6563 80.9193 23.5381 80.9212 23.3921V6.91474Z" fill="white"/>
<path d="M57.8865 9.07651C57.8865 7.94193 56.9713 7.02539 55.8422 7.02539C54.7131 7.02539 53.7979 7.94193 53.7979 9.07651C53.7979 10.2111 54.7131 11.1276 55.8422 11.1276C56.9713 11.1276 57.8865 10.2093 57.8865 9.07651Z" fill="white"/>
<path d="M57.6595 19.9179V12.3102C57.6595 12.1661 57.5423 12.0479 57.3972 12.0479H54.2367C54.0916 12.0479 53.9614 12.1957 53.9614 12.3417V23.2403C53.9614 23.56 54.1623 23.6561 54.4228 23.6561H57.2707C57.5832 23.6561 57.6595 23.5046 57.6595 23.2348V19.9179Z" fill="white"/>
<path d="M92.9674 12.0741H89.8218C89.6767 12.0741 89.5595 12.1924 89.5595 12.3384V20.419C89.5595 20.419 88.7597 20.9993 87.6268 20.9993C86.494 20.9993 86.1908 20.4874 86.1908 19.3842V12.3365C86.1908 12.1905 86.0736 12.0723 85.9285 12.0723H82.7364C82.5932 12.0723 82.4741 12.1905 82.4741 12.3365V19.9164C82.4741 23.1927 84.312 23.9947 86.8418 23.9947C88.9159 23.9947 90.5901 22.8564 90.5901 22.8564C90.5901 22.8564 90.6701 23.4569 90.7054 23.5271C90.7408 23.5974 90.8356 23.6694 90.9361 23.6694L92.9674 23.6602C93.1106 23.6602 93.2297 23.5419 93.2297 23.3978V12.3365C93.2297 12.1905 93.1106 12.0723 92.9655 12.0723L92.9674 12.0741Z" fill="white"/>
<path d="M101.567 11.7025C99.7796 11.7025 98.5649 12.4953 98.5649 12.4953V6.91474C98.5649 6.76876 98.4478 6.65234 98.3027 6.65234H95.1236C94.9785 6.65234 94.8613 6.77061 94.8613 6.91474V23.394C94.8613 23.5399 94.9785 23.6582 95.1236 23.6582H97.3298C97.4284 23.6582 97.5046 23.6065 97.5605 23.5178C97.6144 23.4291 97.6944 22.7583 97.6944 22.7583C97.6944 22.7583 98.9947 23.9816 101.456 23.9816C104.345 23.9816 106.002 22.5255 106.002 17.4457C106.002 12.3659 103.355 11.7025 101.567 11.7025ZM100.327 20.9862C99.2346 20.9529 98.4961 20.4614 98.4961 20.4614V15.243C98.4961 15.243 99.2253 14.7977 100.122 14.7183C101.255 14.6166 102.347 14.9566 102.347 17.6416C102.347 20.4725 101.854 21.0305 100.328 20.9862H100.327Z" fill="white"/>
<path d="M66.7704 12.0465H64.3931L64.3894 8.92544C64.3894 8.80718 64.328 8.74805 64.1903 8.74805H60.9499C60.8234 8.74805 60.7564 8.80348 60.7564 8.92359V12.1481C60.7564 12.1481 59.1325 12.538 59.0227 12.5694C58.913 12.6008 58.833 12.7006 58.833 12.8207V14.8478C58.833 14.9938 58.9502 15.1102 59.0953 15.1102H60.7564V19.9849C60.7564 23.6067 63.3142 23.9615 65.0386 23.9615C65.8273 23.9615 66.7704 23.7102 66.9267 23.6529C67.0215 23.6178 67.0755 23.5217 67.0755 23.4164V21.1878C67.0773 21.0419 66.9546 20.9254 66.815 20.9254C66.6755 20.9254 66.3221 20.9809 65.9575 20.9809C64.7893 20.9809 64.3931 20.4413 64.3931 19.7428C64.3931 19.0443 64.3931 15.1102 64.3931 15.1102H66.7704C66.9155 15.1102 67.0327 14.992 67.0327 14.8478V12.3089C67.0327 12.1629 66.9155 12.0465 66.7704 12.0465Z" fill="white"/>
<path fill-rule="evenodd" clip-rule="evenodd" d="M14.5 0C6.48895 0 0 6.42493 0 14.3569C0 20.7026 4.15685 26.0787 9.9159 27.9824C10.6369 28.1146 10.9039 27.6739 10.9039 27.2861C10.9039 26.9424 10.895 26.0434 10.8861 24.8448C6.8539 25.7085 5.99939 22.9235 5.99939 22.9235C5.3407 21.2666 4.38827 20.8259 4.38827 20.8259C3.0709 19.9358 4.48619 19.9534 4.48619 19.9534C5.93708 20.0592 6.71148 21.4341 6.71148 21.4341C8.00215 23.6286 10.1028 22.994 10.9306 22.6239C11.0641 21.6985 11.438 21.0639 11.8475 20.7026C8.62523 20.3412 5.24279 19.1073 5.24279 13.6078C5.24279 12.039 5.80356 10.7611 6.73818 9.75637C6.58686 9.39503 6.0884 7.93201 6.8806 5.95782C6.8806 5.95782 8.10006 5.57004 10.8683 7.42965C12.0255 7.11237 13.2627 6.95373 14.5 6.94492C15.7284 6.94492 16.9745 7.11237 18.1317 7.42965C20.8999 5.57004 22.1194 5.95782 22.1194 5.95782C22.9116 7.93201 22.4131 9.39503 22.2618 9.75637C23.1875 10.7611 23.7483 12.039 23.7483 13.6078C23.7483 19.125 20.357 20.3324 17.1258 20.6937C17.6421 21.1344 18.1139 22.0157 18.1139 23.3554C18.1139 25.2767 18.0961 26.819 18.0961 27.2949C18.0961 27.6827 18.3542 28.1234 19.093 27.9824C24.8521 26.0787 29 20.7026 29 14.3658C29 6.42493 22.511 0 14.5 0Z" fill="white"/>
</svg>
