<svg width="111" height="28" viewBox="0 0 111 28" fill="none" xmlns="http://www.w3.org/2000/svg">
<path d="M35.2061 21.9281L36.573 18.7422C38.0692 19.8476 40.0219 20.4329 41.9734 20.4329C43.4045 20.4329 44.3161 19.8802 44.3161 19.0354C44.2835 16.6943 35.695 18.5153 35.6298 12.631C35.5972 9.64057 38.2648 7.33203 42.0397 7.33203C44.2846 7.33203 46.5295 7.88474 48.1236 9.15302L46.8468 12.4073C45.3799 11.467 43.5685 10.8111 41.8452 10.8111C40.6738 10.8111 39.8926 11.3638 39.8926 12.0794C39.9252 14.3879 48.5789 13.1197 48.6766 18.7444C48.6766 21.8 46.0732 23.9457 42.3646 23.9457C39.6307 23.9435 37.1261 23.2931 35.2061 21.9281Z" fill="white"/>
<path d="M87.9735 17.5882C87.2922 18.7913 86.0002 19.6036 84.5181 19.6036C82.3264 19.6036 80.5487 17.8282 80.5487 15.6369C80.5487 13.4456 82.3253 11.6703 84.5181 11.6703C86.0002 11.6703 87.2922 12.4825 87.9735 13.6856L91.7722 11.5823C90.3499 9.04574 87.6344 7.33008 84.5181 7.33008C79.9272 7.33008 76.2056 11.0491 76.2056 15.6369C76.2056 20.2247 79.9272 23.9437 84.5181 23.9437C87.6355 23.9437 90.3499 22.2281 91.7722 19.6915L87.9735 17.5882Z" fill="white"/>
<path d="M55.341 0.415039H50.5903V23.6177H55.341V0.415039Z" fill="white"/>
<path d="M93.6206 0.415039V23.6188H98.3712V16.666L104 23.6188H110.071L102.913 15.3597L109.55 7.65446H103.739L98.3712 14.06V0.415039H93.6206Z" fill="white"/>
<path d="M69.4242 17.6197C68.7407 18.7577 67.3097 19.6025 65.7156 19.6025C63.524 19.6025 61.7463 17.8271 61.7463 15.6358C61.7463 13.4446 63.524 11.6692 65.7156 11.6692C67.3097 11.6692 68.7407 12.5466 69.4242 13.7171V17.6197ZM69.4242 7.65475V9.54089C68.643 8.24003 66.724 7.33008 64.7062 7.33008C60.5413 7.33008 57.2554 11.0035 57.2554 15.6206C57.2554 20.2377 60.5413 23.9437 64.7062 23.9437C66.7229 23.9437 68.643 23.0338 69.4231 21.7329V23.618H74.1727V7.65475H69.4242Z" fill="white"/>
<path d="M5.86765 17.591C5.86765 19.21 4.55395 20.5228 2.93382 20.5228C1.3137 20.5228 0 19.21 0 17.591C0 15.972 1.3137 14.6592 2.93382 14.6592H5.86765V17.591Z" fill="#E01E5A"/>
<path d="M7.33447 17.591C7.33447 15.972 8.64817 14.6592 10.2683 14.6592C11.8884 14.6592 13.2021 15.972 13.2021 17.591V24.9205C13.2021 26.5396 11.8884 27.8524 10.2683 27.8524C8.64817 27.8524 7.33447 26.5396 7.33447 24.9205V17.591Z" fill="#E01E5A"/>
<path d="M10.2683 5.86364C8.64817 5.86364 7.33447 4.55083 7.33447 2.93182C7.33447 1.3128 8.64817 0 10.2683 0C11.8884 0 13.2021 1.3128 13.2021 2.93182V5.86364H10.2683Z" fill="#36C5F0"/>
<path d="M10.2684 7.32959C11.8885 7.32959 13.2022 8.64239 13.2022 10.2614C13.2022 11.8804 11.8885 13.1932 10.2684 13.1932H2.93382C1.3137 13.1932 0 11.8804 0 10.2614C0 8.64239 1.3137 7.32959 2.93382 7.32959H10.2684Z" fill="#36C5F0"/>
<path d="M22.0034 10.2614C22.0034 8.64239 23.3171 7.32959 24.9372 7.32959C26.5573 7.32959 27.871 8.64239 27.871 10.2614C27.871 11.8804 26.5573 13.1932 24.9372 13.1932H22.0034V10.2614Z" fill="#2EB67D"/>
<path d="M20.5366 10.2614C20.5366 11.8804 19.2229 13.1932 17.6028 13.1932C15.9827 13.1932 14.6689 11.8804 14.6689 10.2614V2.93182C14.6689 1.3128 15.9827 0 17.6028 0C19.2229 0 20.5366 1.3128 20.5366 2.93182V10.2614Z" fill="#2EB67D"/>
<path d="M17.6028 21.9888C19.2229 21.9888 20.5366 23.3016 20.5366 24.9206C20.5366 26.5396 19.2229 27.8524 17.6028 27.8524C15.9827 27.8524 14.6689 26.5396 14.6689 24.9206V21.9888H17.6028Z" fill="#ECB22E"/>
<path d="M17.6028 20.5228C15.9826 20.5228 14.6689 19.21 14.6689 17.591C14.6689 15.972 15.9826 14.6592 17.6028 14.6592H24.9373C26.5574 14.6592 27.8711 15.972 27.8711 17.591C27.8711 19.21 26.5574 20.5228 24.9373 20.5228H17.6028Z" fill="#ECB22E"/>
</svg>
