<svg width="20" height="17" viewBox="0 0 20 17" fill="none" xmlns="http://www.w3.org/2000/svg">
<path d="M18.7344 3.07812C18.9922 3.07812 19.25 2.86328 19.25 2.5625V1.1875C19.25 0.929688 18.9922 0.671875 18.7344 0.671875H0.515625C0.214844 0.671875 0 0.929688 0 1.1875V2.5625C0 2.86328 0.214844 3.07812 0.515625 3.07812H18.7344ZM18.7344 9.95312C18.9922 9.95312 19.25 9.73828 19.25 9.4375V8.0625C19.25 7.80469 18.9922 7.54688 18.7344 7.54688H0.515625C0.214844 7.54688 0 7.80469 0 8.0625V9.4375C0 9.73828 0.214844 9.95312 0.515625 9.95312H18.7344ZM18.7344 16.8281C18.9922 16.8281 19.25 16.6133 19.25 16.3125V14.9375C19.25 14.6797 18.9922 14.4219 18.7344 14.4219H0.515625C0.214844 14.4219 0 14.6797 0 14.9375V16.3125C0 16.6133 0.214844 16.8281 0.515625 16.8281H18.7344Z" fill="white"/>
</svg>
