<svg width="121" height="32" viewBox="0 0 121 32" fill="none" xmlns="http://www.w3.org/2000/svg">
<path d="M108.802 4.89769L108.398 5.23475V5.36958H109.544C109.342 6.58298 109.207 7.66157 108.937 9.41427C108.668 11.167 108.196 12.9197 107.994 13.1219C107.941 13.1745 107.878 13.2142 107.807 13.2376C107.737 13.261 107.662 13.2676 107.589 13.2567L106.982 13.0545C106.927 13.0248 106.863 13.0152 106.802 13.0275C106.74 13.0398 106.685 13.0732 106.645 13.1219C106.508 13.2466 106.413 13.4119 106.376 13.5938C106.376 13.9308 106.78 14.0657 106.982 14.0657C107.61 13.94 108.165 13.5779 108.533 13.0545C108.937 12.5152 109.611 11.167 110.151 8.06604C110.218 7.45933 110.353 6.92004 110.555 5.36958L111.971 5.23475L112.308 4.89769H110.69C111.094 2.33605 111.432 1.52711 112.038 1.52711C112.23 1.53316 112.418 1.57811 112.592 1.65923C112.766 1.74034 112.922 1.85594 113.049 1.999C113.111 2.0345 113.181 2.05319 113.252 2.05319C113.323 2.05319 113.392 2.0345 113.454 1.999C113.61 1.8607 113.706 1.66749 113.724 1.45969C113.791 1.19005 113.386 0.92041 112.915 0.92041C112.485 0.950384 112.067 1.06746 111.684 1.26448C111.302 1.46151 110.964 1.73435 110.69 2.06639C110.097 2.90375 109.726 3.8779 109.611 4.89769H108.802ZM102.601 8.47049C102.601 6.44814 103.612 5.36956 104.016 5.16733L104.488 5.03252C105.162 5.03252 105.567 5.57181 105.567 6.65039C105.567 7.72898 104.69 10.0884 104.084 10.2232L103.679 10.358C102.87 10.358 102.601 9.54908 102.601 8.47049ZM104.96 4.56063C104.432 4.57979 103.919 4.74298 103.477 5.03252C102.836 5.42618 102.31 5.98316 101.955 6.64646C101.6 7.30977 101.427 8.05556 101.455 8.80755C101.455 9.81872 101.926 10.8299 103.207 10.8299C103.965 10.7892 104.682 10.4783 105.23 9.95355C106.168 9.02702 106.701 7.7667 106.713 6.44814C106.742 6.20467 106.719 5.95765 106.643 5.72433C106.567 5.491 106.442 5.27702 106.275 5.09728C106.108 4.91754 105.904 4.77638 105.677 4.68369C105.45 4.59101 105.205 4.54901 104.96 4.56063ZM89.9946 1.72934L92.4889 6.1785V9.95355L91.7473 10.7625H94.3764L93.5674 9.95355V6.1785L96.1291 1.72934L96.938 0.92041H94.5112L95.2527 1.66194L93.2304 5.36958L91.208 1.66194L92.017 0.92041H89.2531L89.9946 1.72934ZM84.3995 9.95355V1.66194H86.287L87.3656 2.67311V0.92041H80.4222V2.67311L81.5008 1.66194H83.3209V9.95355L82.5794 10.7625H85.2084L84.3995 9.95355ZM75.0967 0.92041L75.9056 1.72934V9.95355L75.0967 10.7625H77.7257L76.9842 9.95355V1.72934L77.7257 0.92041H75.0967ZM71.8609 7.99862C71.8722 7.63046 71.7918 7.26528 71.6271 6.93583C71.4624 6.60639 71.2185 6.32298 70.9172 6.11109L68.8948 4.69546C68.6112 4.50129 68.3695 4.252 68.1842 3.96247C67.9989 3.67293 67.8737 3.34908 67.8162 3.01017C67.8327 2.64002 67.9871 2.28943 68.2491 2.02743C68.5111 1.76543 68.8617 1.611 69.2319 1.59453C69.4602 1.61887 69.6859 1.66399 69.906 1.72934L70.7823 2.67311L71.6587 1.25747L69.7038 0.92041H69.2319C68.5819 0.920173 67.9575 1.17367 67.4916 1.62695C67.0257 2.08022 66.7552 2.69747 66.7377 3.34723C66.7553 3.79398 66.881 4.22976 67.1041 4.61722C67.3272 5.00469 67.641 5.33225 68.0185 5.5718L70.0408 7.05487C70.2595 7.21854 70.4351 7.4329 70.5525 7.6795C70.67 7.92611 70.7257 8.19756 70.7149 8.47049C70.7336 8.69401 70.7056 8.91899 70.6327 9.13111C70.5598 9.34324 70.4436 9.5379 70.2915 9.70271C70.1394 9.86753 69.9546 9.9989 69.749 10.0885C69.5434 10.1781 69.3214 10.224 69.0971 10.2232L68.4229 10.0884L67.4792 9.0098L66.6702 10.4928L68.5578 10.8973H69.0971C69.4689 10.8886 69.8354 10.8066 70.1755 10.6562C70.5157 10.5058 70.8229 10.2898 71.0796 10.0206C71.3362 9.75143 71.5374 9.4343 71.6714 9.08735C71.8055 8.74041 71.8699 8.37046 71.8609 7.99862ZM58.7831 1.66194H59.9965C60.2501 1.66178 60.5012 1.71273 60.7347 1.81177C60.9683 1.91081 61.1794 2.05592 61.3556 2.2384C61.5318 2.42088 61.6694 2.63698 61.7602 2.87382C61.851 3.11066 61.8931 3.36339 61.884 3.61687C61.8665 4.1057 61.66 4.56865 61.3079 4.90818C60.9558 5.24771 60.4856 5.43728 59.9965 5.43697H58.7831V1.66194ZM58.7831 9.95355V6.1785H60.2661L62.693 10.7625H64.3108L63.5019 9.95355L61.3447 5.90886C61.8459 5.75844 62.289 5.45816 62.6144 5.0484C62.9397 4.63865 63.1319 4.13907 63.1648 3.61687C63.1648 1.999 61.6144 0.92041 59.9965 0.92041H56.963L57.7045 1.72934V9.95355L56.963 10.7625H59.592L58.7831 9.95355ZM53.9969 10.7625V8.94238L52.9183 10.021H49.9522V5.90886H52.1768L52.9183 6.65039V4.3584L52.1768 5.16733H49.9522V1.66194H52.9183L53.9969 2.67311V0.92041H48.0646L48.8736 1.72934V9.95355L48.0646 10.7625H53.9969ZM40.8516 0.92041H38.0203L38.8293 1.72934L41.5932 10.7625H42.1324L44.9637 1.72934L45.7727 0.92041H43.4133L44.1548 1.66194L42.065 8.47049L40.0427 1.66194L40.8516 0.92041ZM32.7622 0.92041L33.5712 1.72934V9.95355L32.7622 10.7625H35.3913L34.6498 9.95355V1.72934L35.3913 0.92041H32.7622ZM23.1898 9.88614V2.53828L28.5153 10.7625H28.8524V1.79675L29.6613 0.92041H27.0997L27.976 1.79675V7.99862L23.5268 0.92041H21.5045L22.3134 1.79675V9.88614L21.5045 10.7625H24.0662L23.1898 9.88614ZM11.7298 8.13343C11.7384 8.52 11.8242 8.90097 11.9822 9.25387C12.1403 9.60677 12.3673 9.92448 12.65 10.1883C12.9327 10.4521 13.2653 10.6567 13.6282 10.7901C13.9911 10.9234 14.3771 10.9828 14.7633 10.9647C16.3812 10.9647 17.9991 9.75131 17.9991 8.13343V1.79675L18.808 0.92041H16.2464L17.1227 1.79675V8.13343C17.0336 8.63176 16.7721 9.08286 16.3839 9.40779C15.9956 9.73271 15.5055 9.91076 14.9993 9.91076C14.493 9.91076 14.0029 9.73271 13.6147 9.40779C13.2265 9.08286 12.965 8.63176 12.8758 8.13343V1.79675L13.7522 0.92041H10.9209L11.7298 1.79675V8.13343Z" fill="white"/>
<path d="M111.971 30.1098V20.2003L118.981 31.2558H119.521V19.1891L120.667 18.0431H117.229L118.375 19.1891V27.5481L112.442 18.0431H109.679L110.825 19.1891V30.1098L109.679 31.2558H113.117L111.971 30.1098ZM101.926 30.5142C99.2972 30.5142 98.3535 27.3459 98.3535 24.6494C98.3535 21.953 99.2972 18.7172 101.926 18.7172C104.555 18.7172 105.499 21.8856 105.499 24.6494C105.499 27.4133 104.623 30.5142 101.926 30.5142ZM96.6682 24.6494C96.6682 28.02 98.5557 31.5254 101.926 31.5254C105.297 31.5254 107.252 28.02 107.252 24.6494C107.252 21.2789 105.364 17.7061 101.926 17.7061C98.4883 17.7061 96.6682 21.2789 96.6682 24.6494ZM91.41 30.1772V18.9869H93.9043L95.3199 20.4025V18.0431H86.0171V20.4025L87.4328 18.9869H89.927V30.1772L88.9158 31.2558H92.4212L91.41 30.1772ZM81.7702 25.2562V29.5031C81.4917 29.7962 81.1574 30.0307 80.7869 30.1928C80.4165 30.3549 80.0173 30.4412 79.613 30.4468C76.6469 30.4468 75.1639 27.4807 75.1639 24.6494C75.1639 21.8182 77.0514 18.8521 79.613 18.8521C79.9108 18.8274 80.2103 18.869 80.49 18.9739C80.7698 19.0788 81.0228 19.2444 81.2309 19.4588L82.6466 20.8744V18.5824C81.7235 18.0591 80.6734 17.8024 79.613 17.8409C75.9728 17.8409 73.4786 21.0766 73.4786 24.6494C73.4786 28.2222 75.9728 31.3906 79.613 31.3906C80.8967 31.4791 82.1743 31.1479 83.2533 30.4468V25.2562L84.2644 24.1776H80.6916L81.7702 25.2562ZM62.895 30.1098V20.2003L69.9732 31.2558H70.4451V19.1891L71.5911 18.0431H68.1531L69.2991 19.1891V27.5481L63.3668 18.0431H60.603L61.749 19.1891V30.1098L60.603 31.2558H64.041L62.895 30.1098ZM41.7952 24.582H47.3903V30.1772L46.3117 31.2558H49.8845L48.806 30.1772V19.0543L49.8845 18.0431H46.3117L47.3903 19.0543V23.6383H41.7952V19.0543L42.8737 18.0431H39.3683L40.3795 19.0543V30.1772L39.3683 31.2558H42.8737L41.7952 30.1772V24.582ZM36.2 27.5481C36.2223 27.0641 36.123 26.5822 35.911 26.1465C35.699 25.7107 35.3812 25.3351 34.9866 25.0539L32.2901 23.099C31.8908 22.8481 31.5512 22.5129 31.2951 22.117C31.0389 21.7211 30.8723 21.274 30.8071 20.807C30.8246 20.3003 31.0382 19.8202 31.403 19.468C31.7677 19.1159 32.255 18.9192 32.762 18.9195C33.0991 18.9195 33.3687 19.1217 33.5709 19.1217L34.7169 20.3351L35.9978 18.515L33.3687 18.0431H32.762C32.3282 18.0342 31.8969 18.1108 31.4927 18.2686C31.0885 18.4264 30.7194 18.6622 30.4064 18.9627C30.0934 19.2632 29.8426 19.6224 29.6685 20.0198C29.4943 20.4172 29.4002 20.8451 29.3914 21.2789C29.4093 21.8824 29.5716 22.4729 29.8648 23.0007C30.1581 23.5286 30.5737 23.9784 31.0767 24.3124L33.7732 26.2673C34.1587 26.5532 34.4479 26.9497 34.6022 27.4042C34.7565 27.8587 34.7685 28.3494 34.6366 28.8108C34.5048 29.2723 34.2353 29.6826 33.8643 29.9869C33.4932 30.2913 33.0381 30.4752 32.5598 30.5142C32.2332 30.5268 31.9087 30.4573 31.616 30.312L30.3352 28.829L29.1892 30.9187L31.7508 31.3906H32.5598C33.5492 31.3554 34.4852 30.9329 35.1661 30.2142C35.847 29.4955 36.2183 28.538 36.2 27.5481ZM21.7739 20.9418L23.594 26.4021H19.8864L21.7739 20.9418ZM18.6056 30.1772L19.5493 27.4133H23.9311L24.8074 30.1772L23.7963 31.2558H27.5713L26.4927 30.1772L22.3806 18.0431H21.7065L17.527 30.1772L16.4484 31.2558H19.6168L18.6056 30.1772ZM5.46034 31.2558L8.49386 21.6833L11.3925 31.2558H12.0667L15.9091 19.0543L16.9877 18.0431H13.8194L14.8305 19.0543L12.0667 28.2223L9.30278 19.0543L10.3814 18.0431H6.60632L7.68491 19.0543L7.95455 19.9306L5.39292 28.2223L2.69646 19.0543L3.70763 18.0431H0L1.07859 19.0543L4.78622 31.2558H5.46034Z" fill="white"/>
<path d="M53.4575 18.043L54.4687 19.0541V30.177L53.4575 31.1882H57.0303L55.9517 30.177V19.0541L57.0303 18.043H53.4575Z" fill="white"/>
</svg>
