<svg width="280" height="117" viewBox="0 0 280 117" fill="none" xmlns="http://www.w3.org/2000/svg">
<g clip-path="url(#clip0_308_1705)">
<path d="M67.0514 82.8472C65.5044 84.2449 64.0541 85.5943 62.5071 86.8474C58.5914 90.1247 54.289 92.8236 49.3097 94.3658C44.7737 95.6719 40.0562 96.2414 35.3386 96.0526C30.6506 96 26.0125 95.085 21.6577 93.3537C14.4666 90.4638 8.46878 85.2318 4.64111 78.5097L4.30273 77.8349H20.5459C20.8525 77.8352 21.1531 77.9185 21.4159 78.0759C25.3324 81.2089 30.132 83.0453 35.1453 83.3292C40.3663 83.6665 45.2972 82.7508 49.8414 80.0519C50.8082 79.4736 51.7268 78.7506 52.6937 78.1723C52.9403 77.9703 53.245 77.8521 53.5637 77.8349H61.7337C61.9751 77.8167 62.2151 77.8851 62.4104 78.0277L67.0514 82.8472Z" fill="white"/>
<path d="M220.78 75.4253H168.474C170.697 69.6419 172.921 63.9067 175.145 58.2197H189.019C187.811 61.2078 186.65 64.1477 185.49 67.184H203.957C202.797 64.1959 201.637 61.256 200.476 58.2197H214.157L220.78 75.4253Z" fill="white"/>
<path d="M180.608 80.1485L174.952 94.3178H161.174L167.556 77.8833H221.748C223.826 83.3293 225.953 88.7754 228.08 94.3178H214.303C212.514 89.5947 210.725 84.8716 208.888 80.1485H180.608Z" fill="white"/>
<path d="M127.189 75.4735H102.825C100.891 69.7383 99.0055 64.0031 97.0718 58.2197H109.979L114.959 73.112H115.104C116.747 68.1479 118.439 63.1838 120.131 58.2197H133.039C131.057 64.0031 129.123 69.7383 127.189 75.4735Z" fill="white"/>
<path d="M277.244 55.8099H238.764V42.8455H251.961V52.0507L252.155 52.1471C255.442 52.1471 258.729 52.3399 262.016 51.7133C263.447 51.4743 264.746 50.7382 265.684 49.6355C266.622 48.5328 267.138 47.1347 267.141 45.689C267.141 44.7733 267.044 43.8576 266.996 42.8455H279.903C280.242 47.424 279.661 51.8097 277.244 55.8099Z" fill="white"/>
<path d="M194.675 43.7612C193.08 47.7613 191.533 51.7615 189.938 55.8099H176.063C177.755 51.4242 179.447 47.1348 181.091 42.8455H208.211C209.903 47.1348 211.547 51.4242 213.239 55.8099H199.51C197.963 51.7615 196.367 47.7613 194.82 43.7612H194.675Z" fill="white"/>
<path d="M238.764 58.2197H275.359L274.876 58.7981C271.556 62.138 267.151 64.1886 262.452 64.5815C259.261 64.8706 256.022 64.9188 252.831 65.0634H252.009V75.4253H238.764V58.2197Z" fill="white"/>
<path d="M82.9561 42.8455H104.855C106.306 47.1348 107.707 51.4242 109.158 55.8099H96.2503L94.655 51.0386H94.51L93.6399 55.8099H80.7324C81.4576 51.4724 82.231 47.183 82.9561 42.8455Z" fill="white"/>
<path d="M136.423 55.7617C136.133 54.1713 135.843 52.5808 135.601 50.9904H135.456C134.924 52.5808 134.392 54.1713 133.812 55.7617H120.953L125.304 42.8455H147.155C147.832 47.1348 148.557 51.4242 149.33 55.7617H136.423Z" fill="white"/>
<path d="M126.367 77.8833C124.53 83.4257 122.693 88.8718 120.856 94.3178H109.157C107.32 88.8718 105.484 83.4257 103.646 77.8833H126.367Z" fill="white"/>
<path d="M0.048511 58.2197H13.2944C13.0527 64.5815 14.503 70.3649 18.7088 75.4253H3.09411C0.72533 69.9793 -0.144859 64.2441 0.048511 58.2197Z" fill="white"/>
<path d="M93.2529 58.2197C92.2377 64.0031 91.2225 69.6901 90.2556 75.4253H77.2998C78.315 69.6901 79.2818 63.9549 80.297 58.2197H93.2529Z" fill="white"/>
<path d="M152.618 75.4735H139.758C138.792 69.7383 137.825 64.0031 136.81 58.2197H149.717C150.684 63.9549 151.651 69.6419 152.618 75.4735Z" fill="white"/>
<path d="M251.913 94.3178H238.764V77.8833H251.913V94.3178Z" fill="white"/>
<path d="M5.17285 40.243L8.94359 35.3272H64.7792C65.0159 35.31 65.2532 35.3492 65.4717 35.4413C65.6902 35.5335 65.8836 35.6761 66.0361 35.8573L67.1964 37.1586C66.4712 37.8815 65.8427 38.5562 65.2143 39.2791C64.8762 39.7124 64.4314 40.0511 63.9231 40.2623C63.4148 40.4734 62.8604 40.5498 62.3137 40.484C58.8331 40.3876 55.4007 40.484 51.9201 40.4358C51.5079 40.4434 51.1033 40.3257 50.7599 40.0985C46.4036 37.4319 41.3676 36.0764 36.2571 36.1947C31.6486 36.2009 27.1494 37.5952 23.3496 40.1949C23.105 40.3532 22.8194 40.4369 22.5278 40.4358C16.9684 40.484 11.4091 40.484 5.80133 40.4358H5.3179L5.17285 40.243Z" fill="white"/>
<path d="M86.9685 94.3178H74.0127C74.9795 88.8236 75.8981 83.3293 76.865 77.8833H89.8207C88.8538 83.3775 87.887 88.8718 86.9685 94.3178Z" fill="white"/>
<path d="M153.052 77.8833L155.808 94.3178H142.997C142.03 88.8718 141.112 83.4257 140.193 77.8833H153.052Z" fill="white"/>
<path d="M20.1589 42.8455C16.5694 46.3146 14.2395 50.8755 13.5359 55.8099H0.193359C0.542885 51.2942 1.77455 46.8901 3.81905 42.8455H20.1589Z" fill="white"/>
<path d="M279.565 40.4838H266.077C265.703 40.4819 265.343 40.3449 265.062 40.0983C263.752 39.1184 262.196 38.518 260.566 38.3632C257.762 37.9295 254.91 38.0741 251.961 38.0741V40.4838H238.764V35.4233H277.825C278.665 37.0097 279.252 38.717 279.565 40.4838Z" fill="white"/>
<path d="M207.293 40.4357H182.01L183.992 35.3752H205.311C205.988 37.0139 206.616 38.6525 207.293 40.4357Z" fill="white"/>
<path d="M84.2612 35.3752H102.341C102.921 37.0139 103.453 38.7007 104.033 40.4357H83.3911C83.6812 38.7007 83.9711 37.0621 84.2612 35.3752Z" fill="white"/>
<path d="M127.818 35.3752H145.85L146.72 40.4357H126.126C126.658 38.7007 127.238 37.0621 127.818 35.3752Z" fill="white"/>
<path d="M11.6025 32.8692C12.231 32.3391 12.8594 31.8089 13.4879 31.3752C14.1163 30.9414 14.0197 31.2788 14.2614 31.2788H60.09C60.5717 31.2626 61.0405 31.4356 61.3954 31.7608L62.9906 33.0138H11.6508L11.6025 32.8692Z" fill="white"/>
<path d="M275.069 31.3269L276.422 32.9655H238.764V31.3269H275.069Z" fill="white"/>
<path d="M57.286 29.11H17.0166C17.6934 28.5798 18.2735 28.0015 19.192 28.0015H36.1602C42.3964 28.0015 48.6326 28.0497 54.8205 28.0015C55.884 28.0015 56.5608 28.5316 57.3342 28.9654L57.286 29.11Z" fill="white"/>
<path d="M238.716 29.0617V28.0496H270.283C271.154 28.0496 271.685 28.6279 272.314 29.1099L238.716 29.0617Z" fill="white"/>
<path d="M184.91 32.9656L185.587 31.2788H203.764L204.392 32.9656H184.91Z" fill="white"/>
<path d="M100.988 31.2788L101.568 32.9656H84.6963L84.9863 31.2788H100.988Z" fill="white"/>
<path d="M145.173 31.2788L145.463 32.9656H128.591L129.171 31.2788H145.173Z" fill="white"/>
<path d="M51.6783 26.3144H22.4795V26.1698C23.253 25.9289 24.0264 25.4951 24.7998 25.4951H49.3579C50.1797 25.4951 51.0015 25.9289 51.775 26.1698L51.6783 26.3144Z" fill="white"/>
<path d="M265.787 26.3144H238.764V25.4951H260.518C262.306 25.4951 264.047 25.8807 265.787 26.1216V26.3144Z" fill="white"/>
<path d="M186.409 29.1099L186.844 28.0496H202.507C202.604 28.3869 202.749 28.7243 202.894 29.1099H186.409Z" fill="white"/>
<path d="M99.9242 28.0496L100.263 29.0617H85.373L85.5181 28.0496H99.9242Z" fill="white"/>
<path d="M144.641 28.0496C144.689 28.4351 144.738 28.7243 144.786 29.0617H129.945C130.036 28.7174 130.149 28.3793 130.283 28.0496H144.641Z" fill="white"/>
<path d="M201.492 25.4951L201.83 26.3144H187.521L187.811 25.4951H201.492Z" fill="white"/>
<path d="M45.2973 24.3386H28.7642C34.2036 23.0863 39.8578 23.0863 45.2973 24.3386Z" fill="white"/>
<path d="M61.4437 42.8936L58.0598 46.0744L54.6758 42.8936H61.4437Z" fill="white"/>
<path d="M144.206 25.4951L144.351 26.3144H130.863L131.153 25.4951H144.206Z" fill="white"/>
<path d="M99.054 25.5435L99.3441 26.3146H85.8564L86.0015 25.5435H99.054Z" fill="white"/>
<path d="M56.271 75.4253L57.8663 73.6421L59.8967 75.4253H56.271Z" fill="white"/>
<path d="M119.841 107.427C119.454 109.451 119.116 111.475 118.729 113.547H116.747C117.376 110.077 117.956 106.656 118.536 103.186H120.518C121.34 105.499 122.113 107.812 122.887 110.126H122.983C123.757 107.812 124.53 105.499 125.352 103.186H127.334C127.866 106.607 128.446 110.029 129.074 113.547H127.092C126.754 111.523 126.367 109.451 126.029 107.427H125.932C125.207 109.499 124.53 111.523 123.853 113.596H122.016C121.34 111.571 120.663 109.499 119.938 107.427H119.841Z" fill="white"/>
<path d="M45.3936 102.896H47.2306V106.511L47.569 106.367C49.406 104.872 52.5482 105.595 53.225 108.583C53.5634 110.078 53.3217 111.523 52.1615 112.632C51.6032 113.253 50.8312 113.642 49.9985 113.723C49.1657 113.803 48.333 113.569 47.6656 113.066L47.3756 112.873L47.2306 113.499H45.3936V102.896ZM47.2306 109.692C47.2306 110.993 48.0524 111.957 49.261 111.957C49.5466 111.958 49.8293 111.9 50.0915 111.787C50.3536 111.674 50.5896 111.508 50.7846 111.3C50.9797 111.092 51.1296 110.846 51.2251 110.578C51.3206 110.309 51.3596 110.024 51.3397 109.74C51.3593 109.458 51.322 109.174 51.2299 108.906C51.1379 108.639 50.993 108.392 50.8038 108.181C50.6145 107.969 50.3847 107.798 50.1281 107.677C49.8714 107.556 49.5931 107.487 49.3093 107.475C49.0237 107.474 48.741 107.532 48.4788 107.645C48.2167 107.758 47.9807 107.924 47.7857 108.132C47.5906 108.34 47.4407 108.586 47.3452 108.854C47.2497 109.123 47.2107 109.408 47.2306 109.692Z" fill="white"/>
<path d="M187.037 113.547H184.958C184.668 112.873 184.378 112.198 184.137 111.475H179.931L179.061 113.547H176.982L180.994 103.186H183.073L187.037 113.547ZM182.106 106.27H181.913L180.656 109.451H183.363C182.928 108.294 182.493 107.282 182.106 106.27Z" fill="white"/>
<path d="M11.3122 110.463L12.6174 111.764C11.6989 113.355 8.94343 114.222 6.62298 113.692C5.51096 113.424 4.51523 112.806 3.78369 111.929C3.05214 111.052 2.62373 109.963 2.56214 108.825C2.46545 106.126 3.77075 104.053 6.23622 103.186C8.70169 102.318 11.4089 103.234 12.6658 105.065L11.3122 106.318L10.5387 105.692C9.88925 105.181 9.09291 104.892 8.26635 104.866C7.43978 104.84 6.62653 105.079 5.94612 105.547C5.24562 106.115 4.77955 106.921 4.63688 107.81C4.49421 108.699 4.68499 109.609 5.17271 110.367C6.13956 111.861 8.36331 112.343 10.007 111.427L11.3122 110.463Z" fill="white"/>
<path d="M205.069 106.511V105.884H206.954V113.547H205.117L204.972 112.921C204.548 113.289 204.039 113.547 203.492 113.673C202.944 113.799 202.373 113.789 201.83 113.644C200.999 113.454 200.272 112.954 199.8 112.246C199.243 111.455 198.96 110.505 198.995 109.539C199.03 108.573 199.38 107.645 199.993 106.896C201.298 105.451 202.894 105.306 205.069 106.511ZM205.166 109.692C205.186 109.408 205.147 109.123 205.051 108.854C204.956 108.586 204.806 108.34 204.611 108.132C204.416 107.924 204.18 107.758 203.917 107.645C203.655 107.532 203.372 107.474 203.087 107.475C201.927 107.475 201.056 108.439 201.056 109.74C201.037 110.024 201.076 110.309 201.171 110.577C201.267 110.846 201.417 111.092 201.612 111.3C201.807 111.508 202.043 111.673 202.305 111.787C202.567 111.9 202.85 111.958 203.135 111.957C204.295 111.957 205.166 110.993 205.166 109.692Z" fill="white"/>
<path d="M137.099 106.559L137.196 105.884H139.081V113.547H137.196L137.051 112.969C134.682 114.174 133.087 113.933 131.83 112.198C131.277 111.38 131.011 110.402 131.072 109.418C131.133 108.433 131.519 107.496 132.168 106.752C133.232 105.643 135.214 105.113 137.099 106.559ZM133.087 109.692C133.087 110.993 133.957 111.957 135.117 111.957C135.403 111.958 135.686 111.9 135.948 111.787C136.21 111.674 136.446 111.508 136.641 111.3C136.836 111.092 136.986 110.846 137.081 110.578C137.177 110.309 137.216 110.024 137.196 109.74C137.223 109.456 137.19 109.17 137.101 108.899C137.011 108.628 136.867 108.379 136.676 108.166C136.486 107.953 136.253 107.782 135.993 107.663C135.733 107.544 135.451 107.48 135.166 107.475C134.88 107.474 134.597 107.532 134.335 107.645C134.073 107.758 133.837 107.924 133.642 108.132C133.447 108.34 133.297 108.586 133.201 108.854C133.106 109.123 133.067 109.408 133.087 109.692Z" fill="white"/>
<path d="M77.6864 106.511L77.783 105.884H79.6683V113.547H77.8314L77.6864 112.921C77.2526 113.289 76.7358 113.547 76.1801 113.673C75.6245 113.799 75.0466 113.789 74.4957 113.644C73.6792 113.422 72.9631 112.929 72.4653 112.246C71.9261 111.437 71.6589 110.478 71.7023 109.508C71.7458 108.538 72.0977 107.606 72.7071 106.848C74.0123 105.451 75.5593 105.306 77.6864 106.511ZM73.7223 109.692C73.7223 110.993 74.5924 111.957 75.7527 111.957C76.0383 111.958 76.3209 111.9 76.5831 111.787C76.8452 111.674 77.0812 111.508 77.2762 111.3C77.4713 111.092 77.6213 110.846 77.7168 110.578C77.8123 110.309 77.8513 110.024 77.8314 109.74C77.8511 109.454 77.8122 109.166 77.7172 108.895C77.6222 108.624 77.473 108.375 77.2786 108.164C77.0842 107.952 76.8488 107.782 76.5865 107.663C76.3242 107.545 76.0405 107.481 75.7527 107.475C74.5441 107.475 73.7223 108.439 73.7223 109.692Z" fill="white"/>
<path d="M42.3479 113.548H40.4625L40.3659 112.921C39.254 113.74 38.0938 114.03 36.8369 113.548C36.0131 113.255 35.3252 112.672 34.9032 111.909C34.434 111.077 34.2463 110.117 34.3683 109.171C34.4902 108.224 34.9151 107.342 35.5799 106.656C36.8851 105.403 38.5289 105.355 40.3659 106.559L40.4625 105.885H42.3479V113.548ZM36.3534 109.692C36.3338 109.975 36.371 110.258 36.4631 110.526C36.5551 110.794 36.7001 111.04 36.8894 111.252C37.0786 111.463 37.3083 111.634 37.5649 111.755C37.8216 111.876 38.1001 111.945 38.3838 111.957C38.6694 111.958 38.9522 111.9 39.2143 111.787C39.4765 111.674 39.7124 111.508 39.9075 111.3C40.1025 111.092 40.2524 110.846 40.3479 110.578C40.4435 110.309 40.4825 110.024 40.4625 109.74C40.4895 109.452 40.4557 109.162 40.3634 108.888C40.2711 108.614 40.1223 108.362 39.9265 108.149C39.7307 107.935 39.4923 107.765 39.2266 107.649C38.9609 107.533 38.6738 107.474 38.3838 107.475C37.2236 107.475 36.3534 108.391 36.3534 109.692Z" fill="white"/>
<path d="M109.544 110.27H103.501C103.501 110.586 103.592 110.894 103.764 111.159C103.935 111.424 104.18 111.634 104.468 111.764C104.957 111.999 105.507 112.078 106.042 111.992C106.578 111.906 107.075 111.658 107.465 111.282L109.012 112.005C108.384 113.499 105.967 114.222 104.081 113.548C102.196 112.873 101.036 110.656 101.664 108.487C101.967 107.483 102.653 106.637 103.576 106.132C104.498 105.627 105.582 105.504 106.595 105.788C107.562 106.029 108.402 106.624 108.948 107.455C109.495 108.285 109.707 109.29 109.544 110.27ZM107.562 108.728C107.421 108.301 107.138 107.934 106.76 107.689C106.383 107.444 105.932 107.334 105.483 107.379C105.069 107.364 104.663 107.49 104.329 107.734C103.996 107.979 103.755 108.33 103.646 108.728H107.562Z" fill="white"/>
<path d="M163.688 110.27C164.123 112.102 165.863 112.487 167.749 111.282L169.247 112.005C168.667 113.451 166.299 114.174 164.365 113.547C163.38 113.197 162.571 112.477 162.11 111.541C161.649 110.605 161.574 109.526 161.899 108.535C162.033 108.032 162.267 107.56 162.586 107.148C162.906 106.736 163.305 106.392 163.76 106.136C164.215 105.88 164.717 105.717 165.236 105.657C165.755 105.598 166.28 105.642 166.782 105.788C167.77 105.997 168.636 106.583 169.196 107.421C169.756 108.258 169.965 109.281 169.779 110.27H163.688ZM167.797 108.68C167.645 108.283 167.372 107.944 167.017 107.71C166.661 107.477 166.241 107.361 165.815 107.379C165.393 107.348 164.973 107.459 164.622 107.695C164.271 107.931 164.011 108.278 163.881 108.68H167.797Z" fill="white"/>
<path d="M260.325 110.27H254.282C254.301 110.575 254.401 110.869 254.57 111.122C254.74 111.376 254.974 111.581 255.249 111.716C255.735 111.982 256.295 112.084 256.844 112.006C257.393 111.927 257.902 111.674 258.294 111.282L259.841 112.005C259.116 113.547 256.651 114.222 254.765 113.499C253.802 113.074 253.037 112.3 252.624 111.334C252.211 110.368 252.182 109.281 252.541 108.294C252.903 107.308 253.634 106.501 254.581 106.043C255.528 105.584 256.617 105.51 257.617 105.836C258.548 106.097 259.344 106.699 259.846 107.522C260.349 108.345 260.52 109.327 260.325 110.27ZM254.427 108.68H258.391C258.253 108.303 258.004 107.976 257.676 107.744C257.348 107.511 256.956 107.384 256.554 107.378C256.106 107.337 255.656 107.441 255.273 107.675C254.889 107.91 254.592 108.263 254.427 108.68Z" fill="white"/>
<path d="M222.859 103.089C224.261 103.186 225.566 103.138 226.872 103.33C228.177 103.523 229.096 104.728 228.999 106.415C229.003 107.07 228.763 107.704 228.325 108.194C227.888 108.683 227.284 108.994 226.63 109.066L224.841 109.258V113.548H222.859V103.089ZM224.841 107.186C225.615 107.138 226.437 107.475 226.872 106.704C226.946 106.527 226.98 106.336 226.972 106.144C226.964 105.953 226.913 105.765 226.823 105.595C226.63 105.114 225.566 105.017 224.841 105.258V107.186Z" fill="white"/>
<path d="M18.9017 105.692C19.4408 105.679 19.977 105.774 20.4783 105.972C20.9795 106.171 21.4356 106.467 21.8192 106.845C22.2027 107.223 22.5059 107.674 22.7107 108.172C22.9155 108.669 23.0175 109.202 23.0108 109.74C23.0045 110.278 22.892 110.809 22.6797 111.304C22.4673 111.799 22.1593 112.247 21.7732 112.623C21.3872 112.999 20.9307 113.295 20.4297 113.495C19.9287 113.695 19.3931 113.795 18.8535 113.788C18.3183 113.789 17.7885 113.682 17.2953 113.475C16.8021 113.268 16.3554 112.965 15.9815 112.583C15.6076 112.201 15.3141 111.749 15.1182 111.252C14.9224 110.756 14.8281 110.225 14.841 109.692C14.8344 109.161 14.9352 108.633 15.1375 108.142C15.3398 107.65 15.6395 107.205 16.0185 106.831C16.3976 106.458 16.8483 106.164 17.3437 105.969C17.8391 105.773 18.369 105.679 18.9017 105.692ZM18.9017 107.571C18.6247 107.564 18.3492 107.614 18.093 107.719C17.8368 107.825 17.6056 107.982 17.4143 108.182C17.223 108.382 17.0758 108.62 16.9823 108.88C16.8888 109.14 16.851 109.416 16.8714 109.692C16.823 111.041 17.6932 111.957 18.9017 111.909C19.1854 111.91 19.4663 111.852 19.7261 111.738C19.986 111.625 20.2191 111.458 20.4104 111.249C20.6017 111.041 20.747 110.794 20.8368 110.526C20.9267 110.257 20.9591 109.973 20.9321 109.692C20.9321 108.391 20.1586 107.571 18.9017 107.571Z" fill="white"/>
<path d="M245.242 109.74C245.249 110.278 245.147 110.811 244.942 111.308C244.737 111.806 244.434 112.257 244.05 112.635C243.667 113.013 243.211 113.309 242.709 113.508C242.208 113.706 241.672 113.801 241.133 113.788C240.599 113.782 240.073 113.671 239.582 113.462C239.092 113.253 238.648 112.949 238.276 112.569C237.903 112.188 237.609 111.738 237.411 111.245C237.213 110.751 237.114 110.224 237.12 109.692C237.12 109.162 237.226 108.638 237.43 108.15C237.635 107.661 237.935 107.218 238.313 106.846C238.69 106.474 239.138 106.18 239.631 105.982C240.123 105.784 240.65 105.685 241.181 105.692C241.716 105.685 242.247 105.786 242.743 105.987C243.238 106.188 243.689 106.486 244.067 106.863C244.445 107.24 244.744 107.689 244.946 108.183C245.148 108.677 245.248 109.207 245.242 109.74ZM243.26 109.74C243.26 108.439 242.438 107.571 241.23 107.571C240.945 107.55 240.658 107.59 240.391 107.689C240.123 107.787 239.879 107.943 239.677 108.144C239.475 108.346 239.319 108.588 239.22 108.855C239.121 109.123 239.081 109.408 239.102 109.692C239.102 110.993 239.924 111.909 241.133 111.909C242.341 111.909 243.212 111.041 243.26 109.74Z" fill="white"/>
<path d="M63.7639 109.74C63.764 110.28 63.6559 110.814 63.4458 111.312C63.2357 111.809 62.928 112.26 62.5406 112.637C62.1532 113.014 61.694 113.311 61.1901 113.508C60.6863 113.706 60.1477 113.801 59.6064 113.788C59.0731 113.782 58.5463 113.671 58.056 113.462C57.5658 113.253 57.1217 112.949 56.7491 112.569C56.3765 112.188 56.0827 111.738 55.8845 111.245C55.6863 110.751 55.5877 110.223 55.594 109.692C55.594 109.162 55.6993 108.638 55.904 108.15C56.1086 107.661 56.4085 107.218 56.7862 106.846C57.1639 106.474 57.612 106.18 58.1044 105.982C58.5968 105.784 59.1238 105.685 59.6548 105.692C60.1939 105.679 60.7301 105.774 61.2313 105.972C61.7326 106.171 62.1885 106.467 62.5721 106.845C62.9556 107.223 63.2589 107.674 63.4636 108.172C63.6684 108.669 63.7705 109.202 63.7639 109.74ZM61.7335 109.74C61.7335 108.439 60.9117 107.571 59.7032 107.571C59.4159 107.557 59.1287 107.603 58.8608 107.708C58.593 107.813 58.3504 107.973 58.1493 108.178C57.9481 108.383 57.7931 108.628 57.6943 108.897C57.5954 109.167 57.5551 109.454 57.576 109.74C57.6244 110.993 58.4462 111.909 59.6548 111.909C59.9381 111.916 60.2198 111.864 60.4819 111.757C60.7439 111.649 60.9805 111.488 61.1763 111.284C61.3721 111.079 61.5228 110.837 61.6188 110.571C61.7148 110.305 61.7539 110.022 61.7335 109.74Z" fill="white"/>
<path d="M159.192 113.548H157.355C157.315 113.325 157.298 113.099 157.306 112.873C157.258 111.523 157.258 110.126 157.21 108.776C157.161 107.427 156.823 107.62 156.243 107.523C155.923 107.462 155.592 107.509 155.303 107.657C155.014 107.806 154.783 108.047 154.648 108.343C154.5 108.66 154.417 109.005 154.406 109.355C154.358 110.511 154.358 111.668 154.358 112.825C154.316 113.063 154.3 113.306 154.309 113.548H152.424V105.885H154.261L154.406 106.511L154.938 106.174C155.376 105.882 155.884 105.71 156.41 105.676C156.937 105.642 157.463 105.747 157.935 105.981C158.95 106.511 159.24 107.427 159.24 108.487V113.017C159.246 113.196 159.23 113.374 159.192 113.548Z" fill="white"/>
<path d="M270.622 107.475L269.075 108.342C267.528 107.282 266.126 107.282 265.256 108.294C264.905 108.704 264.712 109.225 264.712 109.764C264.712 110.303 264.905 110.824 265.256 111.234C266.126 112.198 267.479 112.198 269.075 111.138L270.525 112.102C269.752 113.499 267.576 114.126 265.643 113.596C264.775 113.367 264.011 112.851 263.475 112.134C262.939 111.416 262.664 110.538 262.694 109.644C262.71 108.728 263.04 107.847 263.629 107.145C264.219 106.443 265.032 105.964 265.933 105.788C267.818 105.354 269.848 106.077 270.622 107.475Z" fill="white"/>
<path d="M209.42 112.391L210.58 111.186C212.224 112.198 212.61 112.246 213.094 111.33C212.859 111.081 212.6 110.854 212.32 110.656C211.789 110.318 211.257 110.077 210.774 109.74C210.34 109.505 210.005 109.123 209.828 108.664C209.651 108.205 209.643 107.698 209.807 107.234C209.983 106.777 210.296 106.385 210.701 106.109C211.107 105.834 211.588 105.688 212.079 105.692C212.594 105.645 213.112 105.737 213.579 105.957C214.047 106.178 214.447 106.519 214.738 106.945L213.626 108.053C213.123 107.841 212.606 107.664 212.079 107.523C211.934 107.475 211.74 107.716 211.45 107.909C211.677 108.119 211.92 108.312 212.175 108.487L213.819 109.403C214.233 109.624 214.562 109.976 214.754 110.403C214.947 110.83 214.992 111.309 214.883 111.764C214.81 112.229 214.594 112.659 214.265 112.996C213.936 113.333 213.51 113.559 213.046 113.644C212.386 113.847 211.679 113.836 211.027 113.61C210.374 113.385 209.811 112.958 209.42 112.391Z" fill="white"/>
<path d="M96.3953 113.548H95.0901C94.0265 111.041 92.963 108.535 91.8027 105.933H93.8815L95.7668 110.318L97.7005 105.885H99.7309C98.5706 108.487 97.5072 111.041 96.3953 113.548Z" fill="white"/>
<path d="M275.601 113.548H273.667V107.62L272.7 107.523V105.885L273.619 105.788V103.089H275.601V105.788L276.713 105.885V107.523L275.601 107.62V113.548Z" fill="white"/>
<path d="M191.678 113.548H189.696V107.62L188.729 107.523V105.933L189.648 105.788V103.089H191.63V105.788L192.742 105.885V107.523L191.678 107.62V113.548Z" fill="white"/>
<path d="M82.9074 113.548V107.62L81.9888 107.523V105.885L82.859 105.788V103.089H84.8411V105.788L85.9528 105.885V107.523L84.8893 107.62V113.548H82.9074Z" fill="white"/>
<path d="M247.852 105.885H249.737C249.737 106.125 249.786 106.318 249.786 106.559V114.078C249.738 116.246 248.384 117.162 246.305 116.246V114.849H246.45C247.659 115.042 247.804 114.945 247.804 113.692V106.704C247.804 106.415 247.852 106.174 247.852 105.885Z" fill="white"/>
<path d="M194.675 102.945H196.561V113.547H194.675V102.945Z" fill="white"/>
<path d="M29.9727 102.945H31.858V113.547H29.9727V102.945Z" fill="white"/>
<path d="M25.4766 102.945H27.3136V113.547H25.4766V102.945Z" fill="white"/>
<path d="M145.269 107.523C144.206 107.379 143.819 107.62 143.771 108.68C143.722 109.74 143.674 111.331 143.626 112.68V113.548H141.692V105.933H143.336C143.355 106.144 143.387 106.353 143.432 106.559C144.061 105.788 144.834 105.451 145.849 105.885L145.269 107.523Z" fill="white"/>
<path d="M67.7765 113.548H65.9395V105.885H67.4864L67.6314 106.559C68.2599 105.788 68.985 105.451 70.0486 105.885L69.4685 107.475C68.3566 107.427 67.9699 107.716 67.9215 108.873C67.8732 110.029 67.8731 111.475 67.8248 112.777C67.8312 113.034 67.8151 113.292 67.7765 113.548Z" fill="white"/>
<path d="M231.416 105.885H233.011L233.108 106.559C233.785 105.788 234.51 105.451 235.525 105.885L234.993 107.475C233.881 107.427 233.495 107.716 233.398 108.873C233.301 110.029 233.35 111.475 233.35 112.777C233.35 113.017 233.301 113.258 233.301 113.548H231.416V105.885Z" fill="white"/>
<path d="M147.638 105.885H149.524V113.548H147.638V105.885Z" fill="white"/>
<path d="M89.8687 113.548H87.9834V105.885H89.8687V113.548Z" fill="white"/>
<path d="M250.076 104.005C250.076 104.337 249.943 104.656 249.708 104.891C249.472 105.126 249.152 105.258 248.819 105.258C248.481 105.245 248.161 105.103 247.927 104.86C247.693 104.618 247.562 104.294 247.562 103.957C247.562 103.633 247.688 103.321 247.913 103.087C248.138 102.854 248.446 102.716 248.771 102.704C249.117 102.704 249.449 102.841 249.694 103.085C249.938 103.329 250.076 103.66 250.076 104.005Z" fill="white"/>
<path d="M90.1589 104.005C90.1592 104.329 90.0334 104.641 89.808 104.874C89.5827 105.108 89.2753 105.245 88.9504 105.258C88.6042 105.258 88.2722 105.121 88.0274 104.877C87.7826 104.633 87.645 104.302 87.645 103.957C87.645 103.624 87.7775 103.306 88.0133 103.071C88.249 102.836 88.5686 102.704 88.902 102.704C89.2397 102.716 89.5595 102.859 89.7939 103.101C90.0283 103.344 90.1592 103.668 90.1589 104.005Z" fill="white"/>
<path d="M147.348 103.957C147.341 103.79 147.369 103.624 147.43 103.469C147.49 103.314 147.583 103.173 147.701 103.056C147.819 102.938 147.96 102.846 148.116 102.785C148.271 102.725 148.438 102.697 148.605 102.704C148.772 102.703 148.937 102.737 149.091 102.804C149.244 102.87 149.382 102.968 149.495 103.09C149.609 103.212 149.696 103.357 149.751 103.514C149.805 103.672 149.827 103.839 149.813 104.005C149.82 104.167 149.793 104.329 149.735 104.481C149.678 104.633 149.59 104.771 149.477 104.888C149.364 105.005 149.229 105.098 149.079 105.162C148.929 105.225 148.768 105.258 148.605 105.258C148.433 105.265 148.263 105.236 148.104 105.173C147.944 105.11 147.801 105.013 147.682 104.89C147.563 104.767 147.472 104.62 147.414 104.459C147.356 104.298 147.334 104.127 147.348 103.957Z" fill="white"/>
<path d="M20.4487 4.9159H23.156L23.301 6.16897C23.7824 5.65499 24.367 5.24775 25.0166 4.97374C25.6662 4.69973 26.3665 4.56508 27.0718 4.57853C28.5704 4.57853 29.6339 5.34965 30.4557 6.60272L30.9392 6.07257C31.551 5.40936 32.3402 4.93445 33.2139 4.70388C34.0876 4.47331 35.0093 4.49672 35.8701 4.77132C36.5562 4.998 37.1559 5.42924 37.5881 6.00674C38.0204 6.58424 38.2645 7.28014 38.2872 8.00037C38.3839 10.121 38.3839 12.1933 38.3839 14.3139V16.4827H35.5317C35.476 16.2617 35.4435 16.0356 35.4349 15.808V10.2173C35.4346 9.76367 35.3861 9.31133 35.29 8.86789C34.9999 7.18107 33.2595 6.60271 31.9543 7.7112C30.649 8.81968 30.8908 9.39803 30.8908 10.4101C30.8424 12.1933 30.8907 13.9766 30.8424 15.7598V16.4827H27.9902C27.9501 16.2601 27.9338 16.0339 27.9418 15.808C27.8935 13.9766 27.9419 12.1933 27.8936 10.4101C27.8936 9.92817 27.8452 9.44622 27.7969 8.96427C27.7689 8.55976 27.6136 8.17436 27.3532 7.86287C27.0929 7.55138 26.7407 7.32965 26.3466 7.22925C25.8932 7.12364 25.4181 7.15946 24.9858 7.33187C24.5535 7.50427 24.1848 7.80492 23.9295 8.19315C23.6206 8.7611 23.4236 9.38278 23.3493 10.0246C23.2526 11.9042 23.2526 13.7838 23.2526 15.7116V16.4827H20.4487V4.9159Z" fill="white"/>
<path d="M11.8921 2.84345L9.81334 4.72305L8.94327 3.90373C8.70922 3.66949 8.4301 3.48473 8.12276 3.36052C7.81543 3.2363 7.48608 3.17518 7.1545 3.1808C6.91413 3.1877 6.68001 3.2583 6.4761 3.38536C6.27218 3.51242 6.10587 3.69134 5.99432 3.90373C5.91151 4.12155 5.89959 4.35985 5.96033 4.58479C6.02108 4.80973 6.15138 5.00987 6.3327 5.1568L9.95839 8.33767C10.8769 9.15698 11.7471 10.0727 12.0371 11.3257C12.209 11.929 12.2492 12.562 12.1548 13.182C12.0605 13.8021 11.8338 14.3947 11.4902 14.92C11.1466 15.4453 10.6939 15.891 10.1628 16.2271C9.6317 16.5632 9.03451 16.7818 8.41145 16.8682C7.15302 17.123 5.84475 16.9236 4.72014 16.3057C3.59553 15.6877 2.72782 14.6913 2.27197 13.4945L4.64071 12.0969C5.07579 12.5306 5.36587 12.9644 5.75261 13.3499C5.98817 13.6359 6.29621 13.8537 6.64475 13.9808C6.9933 14.1079 7.36968 14.1397 7.7347 14.0729C8.03889 14.073 8.33595 13.9809 8.58636 13.8087C8.83678 13.6366 9.02865 13.3925 9.13659 13.109C9.25667 12.8379 9.29316 12.5374 9.24151 12.2457C9.18986 11.9539 9.05236 11.684 8.84649 11.4703C8.43549 11.0284 7.99974 10.61 7.54126 10.2173C6.38104 9.15698 5.22082 8.19308 4.15728 7.0846C2.22358 5.01221 2.75533 2.07232 5.2208 0.819251C5.84493 0.493819 6.53581 0.315863 7.23995 0.299149C7.94409 0.282435 8.64268 0.427405 9.28164 0.722855C10.3149 1.20268 11.212 1.93148 11.8921 2.84345Z" fill="white"/>
<path d="M46.8922 4.5784C47.7065 4.56561 48.5152 4.71449 49.2713 5.01635C50.0274 5.31822 50.7156 5.76704 51.296 6.33669C51.8764 6.90633 52.3373 7.5854 52.6519 8.33436C52.9664 9.08332 53.1284 9.8872 53.1283 10.6992C53.1349 11.5088 52.9789 12.3117 52.6697 13.0604C52.3604 13.8091 51.9041 14.4886 51.3275 15.0589C50.751 15.6292 50.0659 16.0788 49.3125 16.3812C48.5591 16.6836 47.7525 16.8328 46.9405 16.8199C46.1324 16.8263 45.3312 16.6724 44.5834 16.3671C43.8356 16.0618 43.1562 15.6112 42.5848 15.0415C42.0134 14.4719 41.5615 13.7946 41.2552 13.049C40.949 12.3035 40.7945 11.5047 40.801 10.6992C40.7946 9.89766 40.9474 9.10281 41.2506 8.36048C41.5539 7.61815 42.0017 6.94302 42.5679 6.37401C43.1342 5.80501 43.8077 5.3534 44.5499 5.04521C45.2921 4.73703 46.0882 4.57837 46.8922 4.5784ZM43.7499 10.5064C43.7016 11.8558 44.0399 12.8197 45.0068 13.5427C45.4981 13.9212 46.0909 14.1461 46.7104 14.189C47.3299 14.2319 47.9483 14.0908 48.4874 13.7836C49.841 13.0125 50.2761 11.7595 50.1794 10.2654C50.1489 9.6468 49.9352 9.05109 49.5652 8.55355C49.1952 8.05602 48.6856 7.67897 48.1007 7.47009C47.6117 7.26629 47.0789 7.18912 46.5519 7.24575C46.025 7.30238 45.521 7.49097 45.0868 7.79399C44.6526 8.09701 44.3023 8.50459 44.0686 8.97883C43.8348 9.45307 43.7252 9.97856 43.7499 10.5064Z" fill="white"/>
<path d="M58.6392 16.5307H55.8354V4.91575H58.5426L58.6876 5.97604L59.4128 5.49409C60.1513 4.91694 61.054 4.58747 61.9918 4.55284C62.9296 4.51822 63.8544 4.78019 64.6338 5.3013C65.0846 5.60753 65.4557 6.01648 65.7163 6.49422C65.9769 6.97196 66.1195 7.50475 66.1323 8.04842C66.1807 10.7473 66.1323 13.4944 66.1323 16.1934C66.1323 16.2898 66.0841 16.3862 66.0841 16.5307H63.3768C63.3238 16.2767 63.2915 16.0188 63.2802 15.7596V9.92802C63.2797 9.56971 63.2309 9.2131 63.1351 8.86774C62.8451 7.22911 61.1048 6.65076 59.7995 7.71105C59.4546 8.02251 59.1779 8.40155 58.9866 8.82447C58.7953 9.24739 58.6935 9.7051 58.6876 10.169C58.6393 12.0004 58.6392 13.8318 58.6392 15.7114V16.5307Z" fill="white"/>
<path d="M76.2841 6.40988L74.4955 8.1449L73.577 7.47016C73.348 7.30871 73.0822 7.20657 72.8037 7.17291C72.5253 7.13926 72.2428 7.17516 71.9817 7.27738C71.8585 7.31304 71.7481 7.38286 71.6632 7.47871C71.5782 7.57455 71.5224 7.69249 71.5022 7.81875C71.4819 7.94502 71.498 8.07442 71.5487 8.1919C71.5993 8.30937 71.6825 8.41007 71.7884 8.48226C72.1422 8.71938 72.5139 8.92886 72.9002 9.1088C73.7555 9.54969 74.5793 10.0489 75.3657 10.6028C75.7734 10.9451 76.0969 11.3761 76.3111 11.8627C76.5252 12.3493 76.6245 12.8784 76.6012 13.4093C76.5778 13.9401 76.4324 14.4585 76.1763 14.9246C75.9202 15.3906 75.5602 15.7917 75.124 16.0971C73.2386 17.3983 70.0964 17.0128 68.6461 15.2778L68.3076 14.844C68.8877 14.2175 69.4678 13.6391 69.9996 13.0126C70.3792 13.3183 70.7835 13.5923 71.2082 13.8319C71.7664 14.0364 72.3541 14.1504 72.9486 14.1693C73.1296 14.1304 73.2987 14.0488 73.4417 13.9314C73.5846 13.814 73.6973 13.6642 73.7704 13.4945C73.7787 13.3156 73.7485 13.1371 73.6818 12.9708C73.6151 12.8045 73.5134 12.6544 73.3836 12.5306C72.8966 12.1797 72.3788 11.8732 71.8366 11.6149C71.1599 11.1812 70.4831 10.7956 69.8547 10.3137C69.3872 9.94436 69.0408 9.44439 68.86 8.87774C68.6791 8.31109 68.672 7.70353 68.8394 7.13281C68.9729 6.52854 69.2829 5.9772 69.7303 5.54835C70.1777 5.11949 70.7423 4.83233 71.3532 4.72306C72.1721 4.49537 73.0381 4.4963 73.8565 4.72578C74.6749 4.95525 75.4144 5.40444 75.9942 6.02431C76.0908 6.1207 76.1392 6.21709 76.2359 6.26529C76.3326 6.31348 76.2358 6.40988 76.2841 6.40988Z" fill="white"/>
<path d="M17.4518 16.531H14.6963V4.91602H17.4518V16.531Z" fill="white"/>
<path d="M17.8866 1.87962C17.8998 2.12177 17.8632 2.36406 17.7792 2.59166C17.6952 2.81926 17.5655 3.02738 17.3981 3.20332C17.2307 3.37925 17.0291 3.51929 16.8055 3.61487C16.582 3.71045 16.3411 3.75957 16.0978 3.75922C15.8461 3.7593 15.597 3.70912 15.365 3.61167C15.1331 3.51421 14.923 3.37143 14.7473 3.19175C14.5716 3.01208 14.4337 2.79916 14.3419 2.56552C14.25 2.33188 14.2061 2.08228 14.2125 1.83142C14.2125 1.59091 14.2601 1.35277 14.3524 1.13057C14.4447 0.908373 14.58 0.706475 14.7506 0.536413C14.9212 0.366351 15.1236 0.231454 15.3465 0.139417C15.5694 0.0473797 15.8083 1.09834e-07 16.0496 1.09834e-07C16.2949 -8.46053e-05 16.5378 0.0488371 16.7639 0.143873C16.9899 0.238909 17.1947 0.378143 17.3659 0.553342C17.5371 0.728542 17.6714 0.936167 17.7608 1.16396C17.8502 1.39175 17.8931 1.63509 17.8866 1.87962Z" fill="white"/>
</g>
<defs>
<clipPath id="clip0_308_1705">
<rect width="280" height="116.584" fill="white"/>
</clipPath>
</defs>
</svg>
