<svg width="355" height="273" viewBox="0 0 355 273" fill="none" xmlns="http://www.w3.org/2000/svg">
<g clip-path="url(#clip0_316_5146)">
<g filter="url(#filter0_d_316_5146)">
<path opacity="0.2" d="M178.736 228.165C186.858 226.956 194.599 224.595 201.807 221.256L189.777 194.823C185.003 197.039 179.877 198.613 174.495 199.409L178.736 228.165Z" fill="#4F89AA"/>
<path opacity="0.17" d="M166.155 229.095C137.406 229.095 111.976 214.77 96.4842 192.798C94.4966 189.987 92.6802 187.041 91.035 183.99C90.0459 182.158 89.1235 180.287 88.2676 178.377C87.9823 177.744 87.7065 177.101 87.4307 176.458C86.8886 175.172 86.3846 173.868 85.8996 172.544C84.7013 169.243 83.7028 165.846 82.9039 162.373C81.4774 156.117 80.7166 149.602 80.7166 142.905C80.7166 140.67 80.8022 138.463 80.9639 136.275C81.1256 134.087 81.3728 131.919 81.6962 129.779C82.2668 125.999 83.0941 122.295 84.1307 118.688L56.9796 110.667C54.022 120.895 52.4243 131.708 52.4243 142.896C52.4243 206.26 103.331 257.621 166.136 257.621C171.823 257.621 177.414 257.189 182.883 256.383L178.717 228.155C174.609 228.769 170.415 229.086 166.136 229.086L166.155 229.095Z" fill="#4F89AA"/>
<path opacity="0.2" d="M166.155 28.1512C228.968 28.1512 279.895 79.5315 279.895 142.905H307.797C307.797 63.9783 244.384 0 166.155 0C159.393 0 152.736 0.489336 146.222 1.41044L150.149 29.2834C155.38 28.5446 160.724 28.1512 166.155 28.1512Z" fill="#AFE2FF"/>
<path opacity="0.2" d="M92.138 55.7747L73.9833 34.3975C63.665 43.3302 54.6305 53.7406 47.2031 65.3024L70.6358 80.5869C76.5986 71.3087 83.8547 62.9421 92.1475 55.7747H92.138Z" fill="#AFE2FF"/>
<path opacity="0.2" d="M154.134 57.5688L150.149 29.312C128.181 32.4303 108.22 41.8908 92.1572 55.7937L110.559 77.4588C122.627 67.0101 137.615 59.9099 154.125 57.5688H154.134Z" fill="#AFE2FF"/>
<path opacity="0.2" d="M94.4107 96.1016L70.6547 80.606C64.7489 89.8074 60.1081 99.9107 56.9888 110.676L84.1399 118.697C86.4793 110.609 89.96 103.019 94.4012 96.1112L94.4107 96.1016Z" fill="#AFE2FF"/>
<path opacity="0.2" d="M213.609 247.22L225.25 272.81C249.871 261.382 270.698 243.047 285.267 220.249L261.806 205.013C250.109 223.32 233.39 238.038 213.609 247.22Z" fill="#2B6281"/>
<path opacity="0.2" d="M246.391 172.544C245.915 173.868 245.402 175.173 244.86 176.458C244.593 177.101 244.308 177.744 244.023 178.377C243.167 180.287 242.244 182.158 241.255 183.99C240.228 185.89 239.144 187.742 237.984 189.555L261.768 205.003C267.665 195.773 272.286 185.641 275.377 174.846L248.207 166.902C247.656 168.811 247.056 170.692 246.381 172.544H246.391Z" fill="#2B6281"/>
</g>
<g filter="url(#filter1_d_316_5146)">
<path opacity="0.4" d="M220.533 158.804L248.226 166.902C248.654 165.405 249.044 163.899 249.396 162.373C250.822 156.117 251.583 149.602 251.583 142.905H222.777C222.777 148.422 221.988 153.757 220.542 158.804H220.533Z" fill="#2B6281"/>
<path opacity="0.4" d="M166.155 28.1802C160.725 28.1802 155.38 28.5736 150.149 29.3124L154.134 57.5691C158.062 57.0126 162.075 56.7152 166.155 56.7152C208.912 56.7152 244.327 88.4069 250.594 129.78C250.918 131.919 251.165 134.088 251.326 136.275C251.488 138.463 251.574 140.679 251.574 142.905H279.857C279.857 79.5412 228.949 28.1802 166.145 28.1802H166.155Z" fill="#AFE2FF"/>
<path opacity="0.4" d="M235.816 192.799C227.19 205.042 215.464 214.905 201.798 221.247L213.6 247.192C233.372 238.019 250.081 223.301 261.778 205.003L237.993 189.556C237.29 190.659 236.567 191.743 235.816 192.808V192.799Z" fill="#2B6281"/>
<path opacity="0.6" d="M166.155 229.096C170.434 229.096 174.628 228.779 178.736 228.165L174.495 199.41C171.775 199.813 168.989 200.033 166.155 200.033C134.886 200.033 109.541 174.463 109.541 142.915C109.541 137.341 110.35 131.958 111.824 126.873L84.1592 118.708C83.1131 122.315 82.2952 126.009 81.7246 129.799C81.4013 131.939 81.154 134.107 80.9924 136.295C80.8307 138.482 80.7451 140.699 80.7451 142.925C80.7451 149.622 81.5059 156.137 82.9324 162.393C83.7313 165.866 84.7298 169.263 85.9281 172.563C86.4036 173.887 86.9171 175.192 87.4592 176.478C87.7255 177.121 88.0108 177.764 88.2961 178.397C89.152 180.306 90.0744 182.177 91.0635 184.01C92.7087 187.061 94.5251 190.007 96.5127 192.818C111.995 214.78 137.425 229.115 166.183 229.115L166.155 229.096Z" fill="#4F89AA"/>
</g>
<g filter="url(#filter2_d_316_5146)">
<path opacity="0.6" d="M110.569 77.459L92.1667 55.7939C83.874 62.9709 76.6273 71.3184 70.6646 80.6061L94.4206 96.1018C98.8998 89.1264 104.349 82.8513 110.578 77.459H110.569Z" fill="#AFE2FF"/>
<path opacity="0.6" d="M158.185 86.3631L154.134 57.5786C137.624 59.9197 122.637 67.0295 110.568 77.4687L129.322 99.5464C137.32 92.6285 147.248 87.9174 158.185 86.3631Z" fill="#AFE2FF"/>
<path opacity="0.6" d="M94.4109 96.1019L118.614 111.895C121.581 107.27 125.185 103.116 129.313 99.5464L110.559 77.4688C104.33 82.861 98.8806 89.1361 94.4014 96.1115L94.4109 96.1019Z" fill="#AFE2FF"/>
<path opacity="0.6" d="M94.4112 96.1019C89.97 103.01 86.4894 110.609 84.1499 118.688L111.815 126.853C113.365 121.499 115.676 116.462 118.614 111.885L94.4112 96.0923V96.1019Z" fill="#AFE2FF"/>
<path opacity="0.6" d="M166.154 56.7152C162.075 56.7152 158.061 57.0126 154.134 57.5691L158.185 86.3536C160.791 85.9794 163.444 85.7779 166.154 85.7779C197.423 85.7779 222.768 111.348 222.768 142.896H251.573C251.573 140.66 251.488 138.453 251.326 136.266C251.164 134.078 250.917 131.91 250.594 129.77C244.327 88.3973 208.911 56.7056 166.154 56.7056V56.7152Z" fill="#AFE2FF"/>
<path opacity="0.6" d="M220.533 158.804C218.992 164.177 216.691 169.224 213.762 173.81L238.003 189.546C239.163 187.732 240.257 185.881 241.274 183.981C242.263 182.148 243.186 180.277 244.042 178.368C244.327 177.735 244.603 177.092 244.878 176.449C245.421 175.163 245.925 173.858 246.41 172.534C247.085 170.682 247.693 168.802 248.236 166.892L220.542 158.794L220.533 158.804Z" fill="#2B6281"/>
<path opacity="0.6" d="M189.777 194.813L201.808 221.247C215.473 214.905 227.199 205.041 235.825 192.798C236.576 191.733 237.299 190.649 238.003 189.546L213.762 173.81C207.941 182.916 199.62 190.246 189.777 194.813Z" fill="#2B6281"/>
</g>
<g filter="url(#filter3_d_316_5146)">
<path d="M177.861 168.629C175.493 169.723 172.954 170.51 170.291 170.903C168.941 171.104 167.562 171.21 166.154 171.21C150.662 171.21 138.1 158.535 138.1 142.905C138.1 140.142 138.499 137.475 139.231 134.951L111.823 126.863C110.349 131.958 109.541 137.331 109.541 142.905C109.541 174.453 134.885 200.023 166.154 200.023C168.988 200.023 171.775 199.803 174.494 199.4C179.877 198.594 185.003 197.03 189.777 194.813L177.861 168.629Z" fill="#4F89AA"/>
<path d="M166.154 85.7874C163.453 85.7874 160.79 85.9889 158.185 86.3631C147.248 87.9175 137.32 92.6285 129.322 99.5464C125.194 103.116 121.59 107.28 118.623 111.895C115.684 116.472 113.373 121.509 111.823 126.863L139.231 134.951C140.001 132.294 141.143 129.799 142.598 127.534C144.072 125.241 145.86 123.188 147.904 121.413C151.87 117.978 156.787 115.647 162.207 114.879C163.501 114.697 164.813 114.591 166.154 114.591C181.646 114.591 194.209 127.266 194.209 142.896H222.767C222.767 111.348 197.423 85.7778 166.154 85.7778V85.7874Z" fill="#AFE2FF"/>
<path d="M194.209 142.905C194.209 145.64 193.819 148.278 193.096 150.783C192.335 153.45 191.194 155.945 189.739 158.219C186.858 162.738 182.73 166.365 177.852 168.629L189.768 194.813C199.61 190.246 207.922 182.916 213.752 173.81C216.69 169.214 218.992 164.167 220.523 158.804C221.969 153.757 222.758 148.432 222.758 142.905H194.199H194.209Z" fill="#2B6281"/>
</g>
</g>
<defs>
<filter id="filter0_d_316_5146" x="17.2031" y="-30" width="320.594" height="332.81" filterUnits="userSpaceOnUse" color-interpolation-filters="sRGB">
<feFlood flood-opacity="0" result="BackgroundImageFix"/>
<feColorMatrix in="SourceAlpha" type="matrix" values="0 0 0 0 0 0 0 0 0 0 0 0 0 0 0 0 0 0 127 0" result="hardAlpha"/>
<feOffset/>
<feGaussianBlur stdDeviation="15"/>
<feComposite in2="hardAlpha" operator="out"/>
<feColorMatrix type="matrix" values="0 0 0 0 0 0 0 0 0 0 0 0 0 0 0 0 0 0 0.2 0"/>
<feBlend mode="normal" in2="BackgroundImageFix" result="effect1_dropShadow_316_5146"/>
<feBlend mode="normal" in="SourceGraphic" in2="effect1_dropShadow_316_5146" result="shape"/>
</filter>
<filter id="filter1_d_316_5146" x="50.7451" y="-1.81982" width="259.111" height="279.012" filterUnits="userSpaceOnUse" color-interpolation-filters="sRGB">
<feFlood flood-opacity="0" result="BackgroundImageFix"/>
<feColorMatrix in="SourceAlpha" type="matrix" values="0 0 0 0 0 0 0 0 0 0 0 0 0 0 0 0 0 0 127 0" result="hardAlpha"/>
<feOffset/>
<feGaussianBlur stdDeviation="15"/>
<feComposite in2="hardAlpha" operator="out"/>
<feColorMatrix type="matrix" values="0 0 0 0 0 0 0 0 0 0 0 0 0 0 0 0 0 0 0.2 0"/>
<feBlend mode="normal" in2="BackgroundImageFix" result="effect1_dropShadow_316_5146"/>
<feBlend mode="normal" in="SourceGraphic" in2="effect1_dropShadow_316_5146" result="shape"/>
</filter>
<filter id="filter2_d_316_5146" x="40.6646" y="25.7939" width="240.909" height="225.453" filterUnits="userSpaceOnUse" color-interpolation-filters="sRGB">
<feFlood flood-opacity="0" result="BackgroundImageFix"/>
<feColorMatrix in="SourceAlpha" type="matrix" values="0 0 0 0 0 0 0 0 0 0 0 0 0 0 0 0 0 0 127 0" result="hardAlpha"/>
<feOffset/>
<feGaussianBlur stdDeviation="15"/>
<feComposite in2="hardAlpha" operator="out"/>
<feColorMatrix type="matrix" values="0 0 0 0 0 0 0 0 0 0 0 0 0 0 0 0 0 0 0.2 0"/>
<feBlend mode="normal" in2="BackgroundImageFix" result="effect1_dropShadow_316_5146"/>
<feBlend mode="normal" in="SourceGraphic" in2="effect1_dropShadow_316_5146" result="shape"/>
</filter>
<filter id="filter3_d_316_5146" x="79.541" y="55.7778" width="173.226" height="174.246" filterUnits="userSpaceOnUse" color-interpolation-filters="sRGB">
<feFlood flood-opacity="0" result="BackgroundImageFix"/>
<feColorMatrix in="SourceAlpha" type="matrix" values="0 0 0 0 0 0 0 0 0 0 0 0 0 0 0 0 0 0 127 0" result="hardAlpha"/>
<feOffset/>
<feGaussianBlur stdDeviation="15"/>
<feComposite in2="hardAlpha" operator="out"/>
<feColorMatrix type="matrix" values="0 0 0 0 0 0 0 0 0 0 0 0 0 0 0 0 0 0 0.2 0"/>
<feBlend mode="normal" in2="BackgroundImageFix" result="effect1_dropShadow_316_5146"/>
<feBlend mode="normal" in="SourceGraphic" in2="effect1_dropShadow_316_5146" result="shape"/>
</filter>
<clipPath id="clip0_316_5146">
<rect width="260.594" height="272.8" fill="white" transform="translate(47.2031)"/>
</clipPath>
</defs>
</svg>
